<svg width="20" height="20" viewBox="0 0 20 20" fill="none" xmlns="http://www.w3.org/2000/svg">
<path d="M20 9.99753C20 10.0466 20 10.0937 20 10.1437C19.9673 11.5149 19.4587 13.0746 17.3077 13.0746C15.0827 13.0746 14.6154 11.4015 14.6154 9.99753V6.15115C14.6156 6.04569 14.5942 5.94132 14.5524 5.8445C14.5106 5.74768 14.4493 5.66049 14.3724 5.58835C14.2955 5.51621 14.2045 5.46065 14.1052 5.42513C14.0059 5.38961 13.9004 5.37489 13.7952 5.38188C13.5971 5.39889 13.4127 5.49043 13.2794 5.63801C13.1461 5.7856 13.0738 5.97826 13.0769 6.17711V6.56175C12.3825 5.93934 11.5158 5.54189 10.5911 5.42175C9.66635 5.30162 8.72691 5.46443 7.89652 5.88875C7.06613 6.31307 6.38373 6.97899 5.93923 7.79879C5.49473 8.61859 5.30896 9.55381 5.40641 10.4813C5.50386 11.4087 5.87994 12.2849 6.48513 12.9944C7.09031 13.7039 7.8962 14.2134 8.79665 14.4559C9.6971 14.6983 10.6499 14.6623 11.5294 14.3526C12.409 14.0428 13.1741 13.4739 13.724 12.7208C13.8202 12.8889 13.9288 13.0497 14.049 13.2016C14.5654 13.8439 15.549 14.6132 17.3077 14.6132C17.6047 14.6142 17.9013 14.59 18.1942 14.5411C18.2667 14.529 18.341 14.5379 18.4086 14.5667C18.4761 14.5956 18.5339 14.6431 18.5753 14.7038C18.6167 14.7645 18.6398 14.8357 18.6419 14.9091C18.6441 14.9825 18.6252 15.055 18.5875 15.118C17.6834 16.6346 16.3942 17.8849 14.8506 18.742C13.3071 19.5991 11.5642 20.0325 9.79904 19.9981C4.53173 19.8923 0.211538 15.6575 0.00769223 10.3927C-0.0444472 9.06409 0.168881 7.73839 0.635196 6.49318C1.10151 5.24797 1.81145 4.10825 2.72348 3.14072C3.63551 2.17318 4.73132 1.39724 5.9468 0.8583C7.16228 0.319358 8.47303 0.0282322 9.80237 0.00195339C11.1317 -0.0243254 12.4529 0.214771 13.6888 0.705255C14.9246 1.19574 16.0502 1.92776 16.9998 2.8585C17.9493 3.78923 18.7037 4.9 19.2189 6.12581C19.734 7.35162 19.9996 8.66786 20 9.99753ZM6.92308 9.99753C6.92308 10.6061 7.10354 11.201 7.44163 11.7071C7.77973 12.2131 8.26028 12.6075 8.82251 12.8404C9.38475 13.0733 10.0034 13.1342 10.6003 13.0155C11.1971 12.8968 11.7454 12.6037 12.1757 12.1734C12.606 11.743 12.8991 11.1947 13.0178 10.5978C13.1365 10.0009 13.0756 9.38224 12.8427 8.81997C12.6098 8.2577 12.2154 7.77713 11.7094 7.43901C11.2034 7.1009 10.6086 6.92043 10 6.92043C9.18395 6.92043 8.40132 7.24462 7.82429 7.82169C7.24725 8.39876 6.92308 9.18143 6.92308 9.99753Z" fill="black"/>
</svg>
