<svg width="33" height="35" viewBox="0 0 33 35" fill="none" xmlns="http://www.w3.org/2000/svg">
<path d="M31.9369 25.5679C31.003 23.9592 29.6147 19.4073 29.6147 13.4621C29.6147 9.89174 28.1964 6.4676 25.6717 3.94296C23.1471 1.41833 19.723 0 16.1526 0C12.5822 0 9.15807 1.41833 6.63344 3.94296C4.1088 6.4676 2.69047 9.89174 2.69047 13.4621C2.69047 19.409 1.30051 23.9592 0.366575 25.5679C0.128078 25.9769 0.00164119 26.4416 1.58701e-05 26.915C-0.00160945 27.3884 0.121634 27.8539 0.357318 28.2645C0.593001 28.6752 0.932791 29.0164 1.34242 29.2538C1.75205 29.4911 2.21703 29.6163 2.69047 29.6167H9.55784C9.86843 31.1365 10.6944 32.5023 11.8961 33.4833C13.0978 34.4642 14.6014 35 16.1526 35C17.7038 35 19.2074 34.4642 20.4091 33.4833C21.6108 32.5023 22.4368 31.1365 22.7473 29.6167H29.6147C30.088 29.616 30.5528 29.4906 30.9622 29.2531C31.3716 29.0156 31.7111 28.6744 31.9466 28.2638C32.1821 27.8533 32.3052 27.3879 32.3035 26.9146C32.3018 26.4413 32.1754 25.9768 31.9369 25.5679ZM16.1526 32.3091C15.3176 32.3088 14.5033 32.0498 13.8216 31.5676C13.14 31.0855 12.6245 30.4039 12.3462 29.6167H19.959C19.6807 30.4039 19.1652 31.0855 18.4836 31.5676C17.8019 32.0498 16.9875 32.3088 16.1526 32.3091Z" fill="black"/>
</svg>
