<svg width="38" height="41" viewBox="0 0 38 41" fill="none" xmlns="http://www.w3.org/2000/svg">
<path d="M34.625 3.25H29.9375V1.6875C29.9375 1.2731 29.7729 0.875671 29.4799 0.582646C29.1868 0.28962 28.7894 0.125 28.375 0.125C27.9606 0.125 27.5632 0.28962 27.2701 0.582646C26.9771 0.875671 26.8125 1.2731 26.8125 1.6875V3.25H11.1875V1.6875C11.1875 1.2731 11.0229 0.875671 10.7299 0.582646C10.4368 0.28962 10.0394 0.125 9.625 0.125C9.2106 0.125 8.81317 0.28962 8.52015 0.582646C8.22712 0.875671 8.0625 1.2731 8.0625 1.6875V3.25H3.375C2.5462 3.25 1.75134 3.57924 1.16529 4.16529C0.57924 4.75134 0.25 5.5462 0.25 6.375V37.625C0.25 38.4538 0.57924 39.2487 1.16529 39.8347C1.75134 40.4208 2.5462 40.75 3.375 40.75H34.625C35.4538 40.75 36.2487 40.4208 36.8347 39.8347C37.4208 39.2487 37.75 38.4538 37.75 37.625V6.375C37.75 5.5462 37.4208 4.75134 36.8347 4.16529C36.2487 3.57924 35.4538 3.25 34.625 3.25ZM15.875 32.9375C15.875 33.3519 15.7104 33.7493 15.4174 34.0424C15.1243 34.3354 14.7269 34.5 14.3125 34.5C13.8981 34.5 13.5007 34.3354 13.2076 34.0424C12.9146 33.7493 12.75 33.3519 12.75 32.9375V22.9648L11.8867 23.3984C11.5158 23.5839 11.0865 23.6144 10.6931 23.4833C10.2997 23.3521 9.97451 23.0701 9.78906 22.6992C9.60362 22.3283 9.5731 21.899 9.70423 21.5056C9.83536 21.1122 10.1174 20.787 10.4883 20.6016L13.6133 19.0391C13.8516 18.9198 14.1164 18.8635 14.3826 18.8755C14.6488 18.8874 14.9076 18.9673 15.1342 19.1074C15.3609 19.2475 15.5479 19.4433 15.6776 19.6761C15.8072 19.9089 15.8752 20.171 15.875 20.4375V32.9375ZM26.8125 31.375C27.2269 31.375 27.6243 31.5396 27.9174 31.8326C28.2104 32.1257 28.375 32.5231 28.375 32.9375C28.375 33.3519 28.2104 33.7493 27.9174 34.0424C27.6243 34.3354 27.2269 34.5 26.8125 34.5H20.5625C20.2723 34.5 19.9879 34.4192 19.741 34.2666C19.4942 34.1141 19.2947 33.8958 19.165 33.6363C19.0352 33.3767 18.9803 33.0862 19.0063 32.7972C19.0324 32.5082 19.1384 32.2321 19.3125 32L24.9336 24.5059C25.0615 24.3356 25.1532 24.1411 25.2031 23.9342C25.2531 23.7272 25.2603 23.5123 25.2242 23.3025C25.1881 23.0927 25.1095 22.8925 24.9932 22.7141C24.8769 22.5358 24.7255 22.3831 24.5481 22.2654C24.3707 22.1477 24.1711 22.0675 23.9616 22.0297C23.7521 21.992 23.5371 21.9974 23.3297 22.0457C23.1224 22.094 22.9271 22.1842 22.7559 22.3106C22.5847 22.4371 22.4411 22.5973 22.334 22.7812C22.2344 22.9646 22.0991 23.1262 21.9361 23.2564C21.7731 23.3866 21.5856 23.4829 21.3848 23.5395C21.184 23.5961 20.9739 23.6119 20.7668 23.586C20.5598 23.5601 20.36 23.493 20.1793 23.3886C19.9987 23.2843 19.8407 23.1448 19.7148 22.9784C19.5889 22.812 19.4976 22.6221 19.4463 22.4198C19.395 22.2176 19.3848 22.0071 19.4161 21.8008C19.4475 21.5945 19.5198 21.3966 19.6289 21.2188C20.145 20.3256 20.9414 19.6276 21.8946 19.233C22.8477 18.8384 23.9044 18.7693 24.9008 19.0363C25.8973 19.3033 26.7778 19.8916 27.4059 20.7099C28.034 21.5282 28.3747 22.5309 28.375 23.5625C28.3783 24.5815 28.0461 25.5733 27.4297 26.3848L23.6875 31.375H26.8125ZM3.375 12.625V6.375H8.0625V7.9375C8.0625 8.3519 8.22712 8.74933 8.52015 9.04235C8.81317 9.33538 9.2106 9.5 9.625 9.5C10.0394 9.5 10.4368 9.33538 10.7299 9.04235C11.0229 8.74933 11.1875 8.3519 11.1875 7.9375V6.375H26.8125V7.9375C26.8125 8.3519 26.9771 8.74933 27.2701 9.04235C27.5632 9.33538 27.9606 9.5 28.375 9.5C28.7894 9.5 29.1868 9.33538 29.4799 9.04235C29.7729 8.74933 29.9375 8.3519 29.9375 7.9375V6.375H34.625V12.625H3.375Z" fill="black"/>
</svg>
