<svg width="35" height="36" viewBox="0 0 35 36" fill="none" xmlns="http://www.w3.org/2000/svg">
<path d="M31.7188 13.875C31.7188 13.2948 31.4883 12.7384 31.078 12.3282C30.6678 11.918 30.1114 11.6875 29.5312 11.6875H25.1562V7.3125C25.1562 6.73234 24.9258 6.17594 24.5155 5.7657C24.1053 5.35547 23.5489 5.125 22.9688 5.125H5.46875C4.88859 5.125 4.33219 5.35547 3.92195 5.7657C3.51172 6.17594 3.28125 6.73234 3.28125 7.3125V24.8125C3.28189 25.0183 3.34057 25.2197 3.45054 25.3936C3.56051 25.5675 3.71731 25.7069 3.90293 25.7957C4.08855 25.8845 4.29546 25.9192 4.49988 25.8957C4.70431 25.8722 4.89796 25.7915 5.05859 25.6629L9.84375 21.8047V25.9062C9.84375 26.4864 10.0742 27.0428 10.4845 27.453C10.8947 27.8633 11.4511 28.0938 12.0312 28.0938H24.8268L29.9414 32.2254C30.1349 32.3819 30.3761 32.4678 30.625 32.4688C30.9151 32.4688 31.1933 32.3535 31.3984 32.1484C31.6035 31.9433 31.7188 31.6651 31.7188 31.375V13.875ZM25.9014 26.1496C25.7078 25.9931 25.4667 25.9072 25.2178 25.9062H12.0312V21.5312H22.9688C23.5489 21.5312 24.1053 21.3008 24.5155 20.8905C24.9258 20.4803 25.1562 19.9239 25.1562 19.3438V13.875H29.5312V29.085L25.9014 26.1496Z" fill="black"/>
</svg>
