<svg width="19" height="18" viewBox="0 0 19 18" fill="none" xmlns="http://www.w3.org/2000/svg">
<path fill-rule="evenodd" clip-rule="evenodd" d="M18.8438 13.25V1.75C18.8438 1.36875 18.6923 1.00312 18.4227 0.733534C18.1532 0.46395 17.7875 0.3125 17.4063 0.3125H1.59378C1.21253 0.3125 0.846893 0.46395 0.577309 0.733534C0.307726 1.00312 0.156275 1.36875 0.156275 1.75V16.125C0.15465 16.3984 0.231825 16.6665 0.378569 16.8972C0.525312 17.1279 0.735412 17.3115 0.983736 17.4259C1.17465 17.5155 1.38289 17.5621 1.59378 17.5625C1.93297 17.5632 2.26134 17.4431 2.52006 17.2238L2.52815 17.2175L5.45706 14.6875H17.4063C17.7875 14.6875 18.1532 14.536 18.4227 14.2665C18.6923 13.9969 18.8438 13.6312 18.8438 13.25ZM12.0185 6.34112H9.57331V3.883H8.189V6.34112H5.74381V7.72544H8.189V10.1577H9.57331V7.72544H12.0185V6.34112Z" fill="black"/>
</svg>
