<svg width="18" height="18" viewBox="0 0 18 18" fill="none" xmlns="http://www.w3.org/2000/svg">
<path d="M9.30227 0.837158C7.64643 0.837158 6.02777 1.32817 4.65099 2.24811C3.2742 3.16805 2.20113 4.47559 1.56747 6.00539C0.933803 7.53519 0.768008 9.21854 1.09105 10.8426C1.41409 12.4666 2.21145 13.9584 3.38231 15.1292C4.55317 16.3001 6.04493 17.0974 7.66896 17.4205C9.29298 17.7435 10.9763 17.5777 12.5061 16.9441C14.0359 16.3104 15.3435 15.2373 16.2634 13.8605C17.1833 12.4838 17.6744 10.8651 17.6744 9.20925C17.672 6.98955 16.7892 4.86144 15.2196 3.29188C13.6501 1.72231 11.522 0.839502 9.30227 0.837158ZM12.9779 7.73286L8.46989 12.2409C8.41008 12.3008 8.33905 12.3483 8.26087 12.3807C8.18269 12.4131 8.09889 12.4298 8.01426 12.4298C7.92962 12.4298 7.84582 12.4131 7.76764 12.3807C7.68946 12.3483 7.61843 12.3008 7.55862 12.2409L5.6266 10.3089C5.50576 10.188 5.43787 10.0242 5.43787 9.85326C5.43787 9.68236 5.50576 9.51846 5.6266 9.39762C5.74744 9.27678 5.91134 9.20889 6.08224 9.20889C6.25313 9.20889 6.41703 9.27678 6.53787 9.39762L8.01426 10.8748L12.0667 6.82159C12.1265 6.76176 12.1975 6.71429 12.2757 6.68191C12.3539 6.64953 12.4377 6.63286 12.5223 6.63286C12.6069 6.63286 12.6907 6.64953 12.7689 6.68191C12.8471 6.71429 12.9181 6.76176 12.9779 6.82159C13.0378 6.88143 13.0852 6.95246 13.1176 7.03064C13.15 7.10882 13.1667 7.19261 13.1667 7.27723C13.1667 7.36185 13.15 7.44564 13.1176 7.52382C13.0852 7.60199 13.0378 7.67303 12.9779 7.73286Z" fill="black"/>
</svg>
