<svg width="20" height="35" viewBox="0 0 20 35" fill="none" xmlns="http://www.w3.org/2000/svg">
<path d="M9.21066 6.14049C9.21066 6.74771 9.0306 7.3413 8.69325 7.84619C8.35589 8.35108 7.8764 8.74459 7.31539 8.97696C6.75439 9.20934 6.13708 9.27014 5.54153 9.15167C4.94597 9.03321 4.39892 8.7408 3.96955 8.31143C3.54018 7.88206 3.24777 7.33501 3.12931 6.73945C3.01084 6.1439 3.07164 5.52659 3.30402 4.96558C3.53639 4.40458 3.9299 3.92509 4.43479 3.58773C4.93968 3.25038 5.53327 3.07031 6.14049 3.07031C6.95475 3.07031 7.73566 3.39378 8.31143 3.96955C8.8872 4.54532 9.21066 5.32623 9.21066 6.14049ZM13.5089 9.21066C14.1161 9.21066 14.7097 9.0306 15.2146 8.69325C15.7195 8.35589 16.113 7.8764 16.3454 7.31539C16.5778 6.75439 16.6386 6.13708 16.5201 5.54153C16.4016 4.94597 16.1092 4.39892 15.6799 3.96955C15.2505 3.54018 14.7034 3.24777 14.1079 3.12931C13.5123 3.01084 12.895 3.07164 12.334 3.30402C11.773 3.53639 11.2935 3.9299 10.9562 4.43479C10.6188 4.93968 10.4387 5.53327 10.4387 6.14049C10.4387 6.95475 10.7622 7.73566 11.338 8.31143C11.9137 8.8872 12.6946 9.21066 13.5089 9.21066ZM6.14049 10.4387C5.53327 10.4387 4.93968 10.6188 4.43479 10.9562C3.9299 11.2935 3.53639 11.773 3.30402 12.334C3.07164 12.895 3.01084 13.5123 3.12931 14.1079C3.24777 14.7034 3.54018 15.2505 3.96955 15.6799C4.39892 16.1092 4.94597 16.4016 5.54153 16.5201C6.13708 16.6386 6.75439 16.5778 7.31539 16.3454C7.8764 16.113 8.35589 15.7195 8.69325 15.2146C9.0306 14.7097 9.21066 14.1161 9.21066 13.5089C9.21066 12.6946 8.8872 11.9137 8.31143 11.338C7.73566 10.7622 6.95475 10.4387 6.14049 10.4387ZM13.5089 10.4387C12.9017 10.4387 12.3081 10.6188 11.8032 10.9562C11.2983 11.2935 10.9048 11.773 10.6724 12.334C10.4401 12.895 10.3793 13.5123 10.4977 14.1079C10.6162 14.7034 10.9086 15.2505 11.338 15.6799C11.7673 16.1092 12.3144 16.4016 12.9099 16.5201C13.5055 16.6386 14.1228 16.5778 14.6838 16.3454C15.2448 16.113 15.7243 15.7195 16.0617 15.2146C16.399 14.7097 16.5791 14.1161 16.5791 13.5089C16.5791 12.6946 16.2556 11.9137 15.6799 11.338C15.1041 10.7622 14.3232 10.4387 13.5089 10.4387Z" fill="black"/>
<path d="M9.21066 20.8768C9.21066 21.484 9.0306 22.0776 8.69325 22.5825C8.35589 23.0874 7.8764 23.4809 7.31539 23.7133C6.75439 23.9457 6.13708 24.0065 5.54153 23.888C4.94597 23.7695 4.39892 23.4771 3.96955 23.0478C3.54018 22.6184 3.24777 22.0713 3.12931 21.4758C3.01084 20.8802 3.07164 20.2629 3.30402 19.7019C3.53639 19.1409 3.9299 18.6614 4.43479 18.3241C4.93968 17.9867 5.53327 17.8066 6.14049 17.8066C6.95475 17.8066 7.73566 18.1301 8.31143 18.7059C8.8872 19.2816 9.21066 20.0626 9.21066 20.8768ZM13.5089 23.947C14.1161 23.947 14.7097 23.7669 15.2146 23.4296C15.7195 23.0922 16.113 22.6127 16.3454 22.0517C16.5778 21.4907 16.6386 20.8734 16.5201 20.2779C16.4016 19.6823 16.1092 19.1352 15.6799 18.7059C15.2505 18.2765 14.7034 17.9841 14.1079 17.8656C13.5123 17.7472 12.895 17.808 12.334 18.0403C11.773 18.2727 11.2935 18.6662 10.9562 19.1711C10.6188 19.676 10.4387 20.2696 10.4387 20.8768C10.4387 21.6911 10.7622 22.472 11.338 23.0478C11.9137 23.6235 12.6946 23.947 13.5089 23.947ZM6.14049 25.1751C5.53327 25.1751 4.93968 25.3551 4.43479 25.6925C3.9299 26.0298 3.53639 26.5093 3.30402 27.0703C3.07164 27.6313 3.01084 28.2486 3.12931 28.8442C3.24777 29.4398 3.54018 29.9868 3.96955 30.4162C4.39892 30.8456 4.94597 31.138 5.54153 31.2564C6.13708 31.3749 6.75439 31.3141 7.31539 31.0817C7.8764 30.8493 8.35589 30.4558 8.69325 29.9509C9.0306 29.446 9.21066 28.8525 9.21066 28.2452C9.21066 27.431 8.8872 26.6501 8.31143 26.0743C7.73566 25.4985 6.95475 25.1751 6.14049 25.1751ZM13.5089 25.1751C12.9017 25.1751 12.3081 25.3551 11.8032 25.6925C11.2983 26.0298 10.9048 26.5093 10.6724 27.0703C10.4401 27.6313 10.3793 28.2486 10.4977 28.8442C10.6162 29.4398 10.9086 29.9868 11.338 30.4162C11.7673 30.8456 12.3144 31.138 12.9099 31.2564C13.5055 31.3749 14.1228 31.3141 14.6838 31.0817C15.2448 30.8493 15.7243 30.4558 16.0617 29.9509C16.399 29.446 16.5791 28.8525 16.5791 28.2452C16.5791 27.431 16.2556 26.6501 15.6799 26.0743C15.1041 25.4985 14.3232 25.1751 13.5089 25.1751Z" fill="black"/>
</svg>
