<svg width="35" height="35" viewBox="0 0 35 35" fill="none" xmlns="http://www.w3.org/2000/svg">
<path d="M30.9547 12.1267C30.9547 11.7271 31.0732 11.3365 31.2952 11.0043C31.5172 10.672 31.8327 10.4131 32.2019 10.2601C32.5711 10.1072 32.9773 10.0672 33.3692 10.1452C33.7611 10.2231 34.1211 10.4156 34.4037 10.6981C34.6862 10.9807 34.8787 11.3406 34.9566 11.7326C35.0346 12.1245 34.9946 12.5307 34.8416 12.8999C34.6887 13.269 34.4298 13.5846 34.0975 13.8066C33.7653 14.0286 33.3747 14.1471 32.9751 14.1471C32.4392 14.1471 31.9254 13.9342 31.5465 13.5553C31.1676 13.1764 30.9547 12.6625 30.9547 12.1267ZM28.9344 8.086C29.3339 8.086 29.7246 7.96751 30.0568 7.74551C30.3891 7.52351 30.648 7.20797 30.8009 6.8388C30.9538 6.46963 30.9939 6.0634 30.9159 5.67149C30.8379 5.27958 30.6455 4.91959 30.363 4.63704C30.0804 4.35448 29.7204 4.16206 29.3285 4.08411C28.9366 4.00615 28.5304 4.04616 28.1612 4.19908C27.792 4.35199 27.4765 4.61095 27.2545 4.94319C27.0325 5.27544 26.914 5.66606 26.914 6.06564C26.914 6.60148 27.1269 7.11536 27.5058 7.49425C27.8846 7.87314 28.3985 8.086 28.9344 8.086ZM33.7596 17.5143C33.4038 17.485 33.0508 17.5981 32.7784 17.8289C32.5059 18.0597 32.3363 18.3892 32.3067 18.7451C32.0656 21.5609 31.0254 24.2492 29.3083 26.4939C27.5912 28.7385 25.2687 30.446 22.6141 31.4155C19.9595 32.385 17.0832 32.5761 14.3236 31.9664C11.5641 31.3567 9.03612 29.9714 7.03714 27.9737C5.03816 25.976 3.65134 23.4489 3.03987 20.6897C2.42839 17.9306 2.6177 15.0542 3.58552 12.3989C4.55333 9.74373 6.25939 7.42017 8.50295 5.70166C10.7465 3.98316 13.4342 2.9412 16.2499 2.69838C16.4268 2.68379 16.599 2.6345 16.7569 2.55333C16.9147 2.47216 17.055 2.3607 17.1697 2.22531C17.2845 2.08992 17.3715 1.93325 17.4257 1.76426C17.4799 1.59526 17.5003 1.41724 17.4857 1.24036C17.4711 1.06348 17.4218 0.891211 17.3406 0.733381C17.2595 0.575551 17.148 0.435255 17.0126 0.320502C16.8772 0.205748 16.7205 0.118786 16.5515 0.0645792C16.3825 0.0103726 16.2045 -0.0100164 16.0276 0.00457601C12.7008 0.290735 9.52496 1.5211 6.87365 3.5509C4.22234 5.58071 2.2059 8.32552 1.06157 11.4624C-0.0827553 14.5993 -0.307373 17.9978 0.414148 21.258C1.13567 24.5182 2.77331 27.5045 5.13441 29.8656C7.49551 32.2267 10.4818 33.8643 13.742 34.5859C17.0022 35.3074 20.4007 35.0828 23.5376 33.9384C26.6745 32.7941 29.4193 30.7777 31.4491 28.1264C33.4789 25.475 34.7093 22.2992 34.9954 18.9724C35.0106 18.7954 34.9907 18.6171 34.9367 18.4478C34.8827 18.2786 34.7958 18.1217 34.681 17.9862C34.5661 17.8506 34.4256 17.7392 34.2674 17.6582C34.1093 17.5772 33.9367 17.5283 33.7596 17.5143ZM17.4857 5.39219C19.8832 5.39219 22.2269 6.10314 24.2204 7.43514C26.2138 8.76714 27.7676 10.6604 28.6851 12.8754C29.6026 15.0904 29.8426 17.5278 29.3749 19.8792C28.9072 22.2307 27.7526 24.3907 26.0573 26.086C24.362 27.7813 22.2021 28.9358 19.8506 29.4035C17.4991 29.8713 15.0618 29.6312 12.8467 28.7137C10.6317 27.7962 8.73848 26.2425 7.40648 24.249C6.07449 22.2556 5.36354 19.9119 5.36354 17.5143C5.3671 14.3004 6.6454 11.2192 8.91797 8.94662C11.1905 6.67405 14.2718 5.39576 17.4857 5.39219ZM16.1388 17.5143C16.1388 17.8715 16.2807 18.2141 16.5333 18.4667C16.7859 18.7193 17.1285 18.8612 17.4857 18.8612H25.5671C25.9243 18.8612 26.2669 18.7193 26.5195 18.4667C26.7721 18.2141 26.914 17.8715 26.914 17.5143C26.914 17.1571 26.7721 16.8145 26.5195 16.5619C26.2669 16.3093 25.9243 16.1674 25.5671 16.1674H18.8326V9.4329C18.8326 9.07568 18.6907 8.73309 18.4381 8.4805C18.1855 8.22791 17.8429 8.086 17.4857 8.086C17.1285 8.086 16.7859 8.22791 16.5333 8.4805C16.2807 8.73309 16.1388 9.07568 16.1388 9.4329V17.5143ZM22.8733 4.04529C23.2729 4.04529 23.6635 3.9268 23.9957 3.7048C24.328 3.4828 24.5869 3.16726 24.7399 2.79809C24.8928 2.42892 24.9328 2.02269 24.8548 1.63078C24.7769 1.23887 24.5844 0.878877 24.3019 0.596325C24.0193 0.313773 23.6594 0.121353 23.2674 0.0433967C22.8755 -0.0345592 22.4693 0.00545064 22.1001 0.158367C21.731 0.311283 21.4154 0.570236 21.1934 0.902482C20.9714 1.23473 20.8529 1.62534 20.8529 2.02493C20.8529 2.56076 21.0658 3.07465 21.4447 3.45354C21.8236 3.83243 22.3375 4.04529 22.8733 4.04529Z" fill="black"/>
</svg>
