<svg width="16" height="12" viewBox="0 0 16 12" fill="none" xmlns="http://www.w3.org/2000/svg">
<path d="M15.4956 5.7825C15.3819 2.84625 12.9419 0.5 10.0037 0.5C8.98168 0.50016 7.97983 0.784788 7.11034 1.32202C6.24086 1.85925 5.53806 2.62789 5.08063 3.54187C4.70044 4.29961 4.50166 5.13537 4.5 5.98313C4.50196 6.11194 4.45521 6.23674 4.36912 6.33258C4.28302 6.42841 4.16391 6.4882 4.03562 6.5C3.96703 6.5049 3.89816 6.4956 3.83333 6.47267C3.76849 6.44975 3.70908 6.4137 3.65881 6.36677C3.60854 6.31984 3.56849 6.26305 3.54116 6.19994C3.51384 6.13684 3.49983 6.06877 3.5 6C3.49947 5.30065 3.61218 4.60582 3.83375 3.9425C3.84835 3.89997 3.8512 3.85429 3.84202 3.81027C3.83283 3.76625 3.81194 3.72552 3.78155 3.69238C3.75116 3.65923 3.71239 3.6349 3.66933 3.62194C3.62627 3.60899 3.58051 3.60788 3.53688 3.61875C2.67051 3.83469 1.90114 4.33389 1.35092 5.03708C0.800715 5.74027 0.501218 6.60713 0.5 7.5C0.5 9.69938 2.35938 11.5 4.5625 11.5H10C10.7403 11.4992 11.4729 11.3491 12.1539 11.0587C12.8349 10.7682 13.4504 10.3434 13.9634 9.80966C14.4764 9.27591 14.8766 8.64416 15.1398 7.9522C15.4031 7.26024 15.5241 6.5223 15.4956 5.7825ZM12.3538 6.35375C12.3073 6.40024 12.2522 6.43712 12.1915 6.46228C12.1308 6.48744 12.0657 6.50039 12 6.50039C11.9343 6.50039 11.8692 6.48744 11.8085 6.46228C11.7478 6.43712 11.6927 6.40024 11.6462 6.35375L10.5 5.20687V9C10.5 9.13261 10.4473 9.25979 10.3536 9.35355C10.2598 9.44732 10.1326 9.5 10 9.5C9.86739 9.5 9.74021 9.44732 9.64645 9.35355C9.55268 9.25979 9.5 9.13261 9.5 9V5.20687L8.35375 6.35375C8.25993 6.44757 8.13268 6.50028 8 6.50028C7.86732 6.50028 7.74007 6.44757 7.64625 6.35375C7.55243 6.25993 7.49972 6.13268 7.49972 6C7.49972 5.86732 7.55243 5.74007 7.64625 5.64625L9.64625 3.64625C9.69269 3.59976 9.74783 3.56288 9.80853 3.53772C9.86923 3.51256 9.93429 3.49961 10 3.49961C10.0657 3.49961 10.1308 3.51256 10.1915 3.53772C10.2522 3.56288 10.3073 3.59976 10.3538 3.64625L12.3538 5.64625C12.4002 5.69269 12.4371 5.74783 12.4623 5.80853C12.4874 5.86923 12.5004 5.93429 12.5004 6C12.5004 6.06571 12.4874 6.13077 12.4623 6.19147C12.4371 6.25217 12.4002 6.30731 12.3538 6.35375Z" fill="black"/>
</svg>
