<svg width="16" height="17" viewBox="0 0 16 17" fill="none" xmlns="http://www.w3.org/2000/svg">
<path d="M8 -0.00439453C3.79453 -0.00439453 0.5 1.91748 0.5 4.37061V11.8706C0.5 14.3237 3.79453 16.2456 8 16.2456C12.2055 16.2456 15.5 14.3237 15.5 11.8706V4.37061C15.5 1.91748 12.2055 -0.00439453 8 -0.00439453ZM14.25 8.12061C14.25 8.87217 13.6344 9.63857 12.5617 10.2237C11.3539 10.8823 9.73359 11.2456 8 11.2456C6.26641 11.2456 4.64609 10.8823 3.43828 10.2237C2.36563 9.63857 1.75 8.87217 1.75 8.12061V6.82061C3.08281 7.99248 5.36172 8.74561 8 8.74561C10.6383 8.74561 12.9172 7.98936 14.25 6.82061V8.12061ZM12.5617 13.9737C11.3539 14.6323 9.73359 14.9956 8 14.9956C6.26641 14.9956 4.64609 14.6323 3.43828 13.9737C2.36563 13.3886 1.75 12.6222 1.75 11.8706V10.5706C3.08281 11.7425 5.36172 12.4956 8 12.4956C10.6383 12.4956 12.9172 11.7394 14.25 10.5706V11.8706C14.25 12.6222 13.6344 13.3886 12.5617 13.9737Z" fill="black"/>
</svg>
