<svg width="14" height="16" viewBox="0 0 14 16" fill="none" xmlns="http://www.w3.org/2000/svg">
<path d="M12.5313 2.40423L4.01203 0.899874C3.73873 0.851781 3.45752 0.914202 3.23024 1.07341C3.00296 1.23262 2.84821 1.47558 2.80003 1.74886L0.854177 12.8026C0.830377 12.9381 0.833495 13.0768 0.863352 13.211C0.893209 13.3453 0.94922 13.4723 1.02819 13.5848C1.10715 13.6974 1.20752 13.7933 1.32356 13.867C1.4396 13.9408 1.56903 13.9909 1.70447 14.0146L10.2237 15.519C10.3592 15.5429 10.498 15.5398 10.6323 15.51C10.7666 15.4802 10.8937 15.4242 11.0063 15.3452C11.119 15.2663 11.2149 15.1659 11.2887 15.0498C11.3625 14.9337 11.4127 14.8042 11.4364 14.6687L13.3822 3.61492C13.4299 3.34153 13.367 3.06041 13.2075 2.83337C13.0479 2.60633 12.8047 2.45197 12.5313 2.40423ZM7.60745 8.44195C7.58609 8.563 7.5228 8.67266 7.42868 8.75172C7.33456 8.83077 7.21561 8.87417 7.09269 8.87429C7.062 8.87428 7.03137 8.87165 7.00112 8.86644L4.28673 8.38701C4.15773 8.35528 4.04563 8.27567 3.97316 8.16434C3.9007 8.053 3.87329 7.91826 3.89651 7.78746C3.91972 7.65666 3.99182 7.53958 4.09817 7.45998C4.20453 7.38038 4.33718 7.34421 4.46922 7.35881L7.1823 7.83563C7.25005 7.84748 7.3148 7.87257 7.37284 7.90947C7.43089 7.94636 7.48109 7.99434 7.52057 8.05065C7.56006 8.10697 7.58806 8.17051 7.60297 8.23765C7.61787 8.3048 7.61939 8.37422 7.60745 8.44195ZM10.6816 6.86041C10.6602 6.98135 10.597 7.09093 10.5031 7.16997C10.4091 7.24901 10.2903 7.29247 10.1675 7.29275C10.1365 7.29281 10.1057 7.28997 10.0753 7.28425L4.64647 6.32604C4.50978 6.30184 4.3883 6.22433 4.30875 6.11056C4.2292 5.99679 4.19811 5.85608 4.22231 5.71939C4.24651 5.58269 4.32402 5.46121 4.43779 5.38166C4.55156 5.30212 4.69226 5.27102 4.82896 5.29522L10.2577 6.25409C10.3255 6.26586 10.3904 6.2909 10.4485 6.32776C10.5066 6.36463 10.5569 6.41259 10.5964 6.46891C10.636 6.52523 10.664 6.58881 10.679 6.65598C10.6939 6.72316 10.6955 6.79263 10.6835 6.86041H10.6816ZM11.0446 4.79878C11.0232 4.91983 10.9599 5.0295 10.8658 5.10855C10.7717 5.1876 10.6527 5.231 10.5298 5.23112C10.4991 5.23108 10.4685 5.22846 10.4383 5.22328L5.00948 4.26441C4.94025 4.25422 4.87377 4.23025 4.81397 4.19392C4.75417 4.15758 4.70226 4.10962 4.66132 4.05288C4.62038 3.99613 4.59124 3.93175 4.57562 3.86354C4.56 3.79533 4.55822 3.72469 4.57038 3.65578C4.58254 3.58687 4.6084 3.5211 4.64643 3.46236C4.68446 3.40362 4.73388 3.35311 4.79178 3.31381C4.84967 3.27451 4.91486 3.24721 4.98348 3.23355C5.05211 3.21988 5.12278 3.22012 5.19131 3.23425L10.6201 4.19246C10.688 4.20416 10.7528 4.22914 10.811 4.26597C10.8692 4.3028 10.9196 4.35076 10.9592 4.40709C10.9988 4.46341 11.0269 4.52701 11.0419 4.59423C11.0569 4.66144 11.0585 4.73096 11.0465 4.79878H11.0446Z" fill="black"/>
</svg>
