<svg width="35" height="35" viewBox="0 0 35 35" fill="none" xmlns="http://www.w3.org/2000/svg">
<path d="M34.1814 8.63943L26.3606 0.820337C26.1006 0.560262 25.7919 0.353956 25.4521 0.213201C25.1123 0.0724462 24.7482 0 24.3804 0C24.0127 0 23.6485 0.0724462 23.3087 0.213201C22.969 0.353956 22.6603 0.560262 22.4003 0.820337L0.820774 22.3998C0.559635 22.6589 0.352597 22.9673 0.211695 23.3071C0.0707933 23.6469 -0.00116103 24.0113 1.41663e-05 24.3791V32.2C1.41663e-05 32.9426 0.295017 33.6548 0.820125 34.1799C1.34523 34.705 2.05743 35 2.80005 35H32.2004C32.5717 35 32.9278 34.8525 33.1904 34.5899C33.4529 34.3274 33.6004 33.9713 33.6004 33.6C33.6004 33.2287 33.4529 32.8726 33.1904 32.61C32.9278 32.3475 32.5717 32.2 32.2004 32.2H14.5812L34.1814 12.5997C34.4415 12.3397 34.6478 12.031 34.7886 11.6913C34.9293 11.3515 35.0018 10.9873 35.0018 10.6196C35.0018 10.2518 34.9293 9.88766 34.7886 9.54791C34.6478 9.20815 34.4415 8.89945 34.1814 8.63943ZM28.0003 14.8205L20.1813 6.99966L24.3813 2.79961L32.2004 10.6205L28.0003 14.8205Z" fill="black"/>
</svg>
