<svg width="12" height="13" viewBox="0 0 12 13" fill="none" xmlns="http://www.w3.org/2000/svg">
<path d="M10.5536 0.23999H3.26746C3.02591 0.23999 2.79426 0.335946 2.62345 0.506748C2.45265 0.677551 2.35669 0.909208 2.35669 1.15076V2.51691H1.44593C1.20437 2.51691 0.972717 2.61287 0.801914 2.78367C0.631112 2.95447 0.535156 3.18613 0.535156 3.42768V8.8923C0.535156 9.13385 0.631112 9.36551 0.801914 9.53631C0.972717 9.70711 1.20437 9.80307 1.44593 9.80307H2.35669V11.1692C2.35669 11.4108 2.45265 11.6424 2.62345 11.8132C2.79426 11.984 3.02591 12.08 3.26746 12.08H10.5536C10.7952 12.08 11.0268 11.984 11.1976 11.8132C11.3684 11.6424 11.4644 11.4108 11.4644 11.1692V1.15076C11.4644 0.909208 11.3684 0.677551 11.1976 0.506748C11.0268 0.335946 10.7952 0.23999 10.5536 0.23999ZM3.26746 7.98153C3.18091 7.98156 3.09613 7.95692 3.02307 7.9105C2.95001 7.86408 2.8917 7.7978 2.85496 7.71943C2.81822 7.64105 2.80458 7.55383 2.81564 7.46798C2.82669 7.38213 2.86199 7.30121 2.91739 7.2347L3.81336 6.15999L2.91739 5.08528C2.84009 4.99244 2.80284 4.87269 2.81384 4.75238C2.82483 4.63207 2.88317 4.52106 2.97602 4.44376C3.06886 4.36646 3.18861 4.32922 3.30892 4.34021C3.42923 4.35121 3.54024 4.40954 3.61754 4.50239L4.40593 5.44845L5.19431 4.50239C5.23258 4.45642 5.27954 4.41843 5.33249 4.39061C5.38544 4.36278 5.44336 4.34566 5.50293 4.34021C5.5625 4.33477 5.62256 4.34111 5.67968 4.35888C5.7368 4.37664 5.78986 4.40549 5.83583 4.44376C5.88181 4.48203 5.91979 4.52899 5.94762 4.58194C5.97544 4.63489 5.99257 4.69281 5.99801 4.75238C6.00346 4.81195 5.99711 4.87201 5.97935 4.92913C5.96158 4.98625 5.93274 5.03931 5.89446 5.08528L4.99849 6.15999L5.89446 7.2347C5.97176 7.32754 6.00901 7.44729 5.99801 7.5676C5.98702 7.68791 5.92868 7.79892 5.83583 7.87622C5.74299 7.95352 5.62324 7.99077 5.50293 7.97977C5.38262 7.96877 5.27161 7.91044 5.19431 7.81759L4.40593 6.87153L3.61754 7.81759C3.57479 7.86892 3.52126 7.91022 3.46076 7.93855C3.40026 7.96688 3.33427 7.98155 3.26746 7.98153ZM6.45516 11.1692H3.26746V9.80307H6.45516V11.1692ZM6.45516 2.51691H3.26746V1.15076H6.45516V2.51691ZM10.5536 11.1692H7.36593V9.80307C7.60748 9.80307 7.83913 9.70711 8.00994 9.53631C8.18074 9.36551 8.27669 9.13385 8.27669 8.8923V8.43691H10.5536V11.1692ZM10.5536 7.52614H8.27669V4.79384H10.5536V7.52614ZM10.5536 3.88307H8.27669V3.42768C8.27669 3.18613 8.18074 2.95447 8.00994 2.78367C7.83913 2.61287 7.60748 2.51691 7.36593 2.51691V1.15076H10.5536V3.88307Z" fill="black"/>
</svg>
