<svg width="22" height="26" viewBox="0 0 22 26" fill="none" xmlns="http://www.w3.org/2000/svg">
<path d="M13 15.5C13 15.9945 12.8534 16.4778 12.5787 16.8889C12.304 17.3 11.9135 17.6205 11.4567 17.8097C10.9999 17.9989 10.4972 18.0484 10.0123 17.952C9.52732 17.8555 9.08186 17.6174 8.73223 17.2678C8.3826 16.9181 8.1445 16.4727 8.04804 15.9877C7.95157 15.5028 8.00108 15.0001 8.1903 14.5433C8.37952 14.0865 8.69995 13.696 9.11107 13.4213C9.5222 13.1466 10.0055 13 10.5 13C11.163 13 11.7989 13.2634 12.2678 13.7322C12.7366 14.2011 13 14.837 13 15.5ZM22 8V24C22 24.5304 21.7893 25.0391 21.4142 25.4142C21.0391 25.7893 20.5304 26 20 26H2C1.46957 26 0.960859 25.7893 0.585786 25.4142C0.210714 25.0391 0 24.5304 0 24V2C0 1.46957 0.210714 0.960859 0.585786 0.585787C0.960859 0.210714 1.46957 3.09198e-07 2 3.09198e-07H14C14.1314 -0.000102986 14.2615 0.0256758 14.3829 0.0758639C14.5042 0.126052 14.6146 0.199666 14.7075 0.2925L21.7075 7.2925C21.8003 7.38544 21.8739 7.49576 21.9241 7.61715C21.9743 7.73855 22.0001 7.86864 22 8ZM15.7075 19.2925L14.3075 17.8937C14.8977 16.956 15.1216 15.8336 14.9366 14.7411C14.7516 13.6486 14.1705 12.6626 13.3044 11.9715C12.4384 11.2803 11.348 10.9325 10.2417 10.9944C9.13543 11.0564 8.09072 11.5237 7.30722 12.3072C6.52372 13.0907 6.05635 14.1354 5.99442 15.2417C5.93248 16.348 6.28032 17.4384 6.97147 18.3044C7.66263 19.1705 8.64864 19.7516 9.74112 19.9366C10.8336 20.1216 11.956 19.8977 12.8937 19.3075L14.2925 20.7075C14.3854 20.8004 14.4957 20.8741 14.6171 20.9244C14.7385 20.9747 14.8686 21.0006 15 21.0006C15.1314 21.0006 15.2615 20.9747 15.3829 20.9244C15.5043 20.8741 15.6146 20.8004 15.7075 20.7075C15.8004 20.6146 15.8741 20.5043 15.9244 20.3829C15.9747 20.2615 16.0006 20.1314 16.0006 20C16.0006 19.8686 15.9747 19.7385 15.9244 19.6171C15.8741 19.4957 15.8004 19.3854 15.7075 19.2925ZM19.5 8L14 2.5V8H19.5Z" fill="black"/>
</svg>
