<svg width="26" height="30" viewBox="0 0 26 30" fill="none" xmlns="http://www.w3.org/2000/svg">
<path d="M25.0447 8.41361L16.9686 0.337468C16.8613 0.230362 16.7341 0.145431 16.594 0.0875269C16.4539 0.0296231 16.3038 -0.000118818 16.1523 3.56733e-07H2.30747C1.69549 3.56733e-07 1.10858 0.243108 0.675842 0.675843C0.243108 1.10858 0 1.69549 0 2.30747V27.6896C0 28.3016 0.243108 28.8885 0.675842 29.3213C1.10858 29.754 1.69549 29.9971 2.30747 29.9971H7.49928C7.65227 29.9971 7.799 29.9363 7.90719 29.8282C8.01537 29.72 8.07615 29.5732 8.07615 29.4202V26.5359H6.96135C6.66311 26.5407 6.37417 26.4321 6.15282 26.2322C5.93147 26.0322 5.79419 25.7558 5.76868 25.4586C5.7582 25.3008 5.78028 25.1425 5.83355 24.9936C5.88682 24.8447 5.97014 24.7083 6.07834 24.5929C6.18653 24.4776 6.31729 24.3857 6.4625 24.323C6.6077 24.2603 6.76425 24.2281 6.92241 24.2284H8.07615V21.921H6.96135C6.66311 21.9257 6.37417 21.8172 6.15282 21.6172C5.93147 21.4173 5.79419 21.1409 5.76868 20.8437C5.7582 20.6859 5.78028 20.5276 5.83355 20.3786C5.88682 20.2297 5.97014 20.0933 6.07834 19.978C6.18653 19.8626 6.31729 19.7707 6.4625 19.708C6.6077 19.6453 6.76425 19.6132 6.92241 19.6135H8.07615V17.306H6.96135C6.66311 17.3108 6.37417 17.2022 6.15282 17.0023C5.93147 16.8024 5.79419 16.5259 5.76868 16.2287C5.7582 16.0709 5.78028 15.9126 5.83355 15.7637C5.88682 15.6148 5.97014 15.4784 6.07834 15.363C6.18653 15.2477 6.31729 15.1558 6.4625 15.0931C6.6077 15.0304 6.76425 14.9982 6.92241 14.9986H8.07615V13.8838C8.07248 13.5861 8.18147 13.2981 8.38127 13.0774C8.58106 12.8568 8.85689 12.7198 9.15345 12.694C9.31126 12.6835 9.46955 12.7056 9.61847 12.7588C9.76739 12.8121 9.90377 12.8954 10.0191 13.0036C10.1345 13.1118 10.2264 13.2426 10.2891 13.3878C10.3518 13.533 10.384 13.6895 10.3836 13.8477V15.0014H11.4984C11.7962 14.9974 12.0844 15.1063 12.3051 15.3062C12.5258 15.506 12.6627 15.7821 12.6882 16.0787C12.6987 16.2366 12.6766 16.3948 12.6233 16.5438C12.5701 16.6927 12.4867 16.8291 12.3785 16.9444C12.2703 17.0598 12.1396 17.1517 11.9944 17.2144C11.8492 17.2771 11.6926 17.3093 11.5345 17.3089H10.3807V19.6164H11.4955C11.7933 19.6124 12.0815 19.7212 12.3022 19.9211C12.523 20.121 12.6598 20.397 12.6853 20.6937C12.6958 20.8515 12.6737 21.0098 12.6204 21.1587C12.5672 21.3076 12.4839 21.444 12.3757 21.5594C12.2675 21.6747 12.1367 21.7666 11.9915 21.8293C11.8463 21.892 11.6897 21.9242 11.5316 21.9239H10.3778V24.2313H11.4926C11.7904 24.2273 12.0786 24.3362 12.2993 24.5361C12.5201 24.7359 12.6569 25.0119 12.6824 25.3086C12.6929 25.4664 12.6708 25.6247 12.6176 25.7736C12.5643 25.9226 12.481 26.0589 12.3728 26.1743C12.2646 26.2897 12.1338 26.3816 11.9886 26.4443C11.8434 26.507 11.6869 26.5391 11.5287 26.5388H10.375V29.4231C10.375 29.5761 10.4357 29.7229 10.5439 29.831C10.6521 29.9392 10.7988 30 10.9518 30H23.066C23.678 30 24.2649 29.7569 24.6977 29.3242C25.1304 28.8914 25.3735 28.3045 25.3735 27.6925V9.22988C25.3761 8.92504 25.2578 8.63158 25.0447 8.41361ZM16.1523 9.22988V2.88434L22.4978 9.22988H16.1523Z" fill="black"/>
</svg>
