<svg width="35" height="35" viewBox="0 0 35 35" fill="none" xmlns="http://www.w3.org/2000/svg">
<g clip-path="url(#clip0_185_3325)">
<path d="M8.98437 6.25C7.94891 6.25 7.10938 7.08954 7.10938 8.125V18.125H18.6093L19.9844 15.5493C20.2722 14.8404 20.9604 14.3765 21.7258 14.375H27.1094V11.25H23.9844C22.9489 11.25 22.1094 10.4105 22.1094 9.375V6.25H8.98437ZM13.3594 8.75H18.3594V10H13.3594V8.75ZM9.60937 8.75H12.1094V10H9.60937V8.75ZM9.60937 11.25H18.3594V12.5H9.60937V11.25ZM19.6094 15H9.60937V13.75H19.6094V15ZM20.8594 12.5H19.6094V11.25H20.8594V12.5Z" fill="black"/>
<path d="M0.234375 31.3061L3.7381 19.455C3.97644 18.6636 4.70611 18.1229 5.53253 18.125H5.85937V8.125C5.86151 6.39984 7.25921 5.00214 8.98437 5H22.7344C22.8024 5.00824 22.8696 5.02167 22.9355 5.03998C22.955 5.047 22.9736 5.05188 22.9925 5.06073C23.0609 5.09064 23.1232 5.13306 23.1763 5.18555L28.1763 10.1855C28.2284 10.2386 28.2709 10.3006 28.3014 10.3687C28.3099 10.3882 28.3151 10.4074 28.3218 10.4276C28.3392 10.4922 28.3517 10.5582 28.3594 10.625V14.375H31.4844V5.625C31.4844 4.58954 30.6448 3.75 29.6094 3.75H13.3594C13.0963 3.75 12.8613 3.5849 12.7719 3.3374L11.7581 0.534363C11.7511 0.514527 11.745 0.494385 11.7401 0.471802C11.6699 0.194092 11.4197 -0.000304817 11.1331 3.58803e-07H2.10937C1.07391 3.58803e-07 0.234375 0.839539 0.234375 1.875L0.234375 31.3061Z" fill="black"/>
<path d="M34.7264 17.8244C34.8222 17.2787 34.6718 16.7184 34.3156 16.2943C33.9592 15.8701 33.4337 15.625 32.8795 15.625H21.7259C21.4656 15.6262 21.2327 15.7874 21.1403 16.0306C21.1308 16.0565 21.1195 16.0815 21.1064 16.1057L19.5356 19.0433C19.4273 19.2471 19.2155 19.3747 18.9845 19.375H5.53265C5.2583 19.375 5.01569 19.5538 4.93512 19.8163L0.446289 35H31.5883L34.7264 17.8244Z" fill="black"/>
<path d="M26.2256 10L23.3594 7.13379V9.375C23.3594 9.72015 23.6392 10 23.9844 10H26.2256Z" fill="black"/>
</g>
<defs>
<clipPath id="clip0_185_3325">
<rect width="35" height="35" fill="white"/>
</clipPath>
</defs>
</svg>
