<svg width="35" height="27" viewBox="0 0 35 27" fill="none" xmlns="http://www.w3.org/2000/svg">
<path d="M34.5308 9.78738C34.2988 9.46573 33.9936 9.20389 33.6404 9.02349C33.2872 8.84309 32.8962 8.74931 32.4996 8.74989H29.9996V6.24992C29.9996 5.58689 29.7362 4.95101 29.2674 4.48218C28.7986 4.01334 28.1627 3.74995 27.4997 3.74995H16.667L12.3342 0.499994C11.9008 0.176845 11.3749 0.00156251 10.8342 0H2.49997C1.83694 0 1.20106 0.263389 0.732224 0.732224C0.263389 1.20106 0 1.83694 0 2.49997V24.9997C0 25.3312 0.131694 25.6492 0.366112 25.8836C0.60053 26.118 0.918468 26.2497 1.24998 26.2497H29.234C29.4964 26.2497 29.7521 26.1672 29.9649 26.0138C30.1778 25.8604 30.337 25.6439 30.4199 25.395L34.8714 12.0405C34.9966 11.6647 35.031 11.2646 34.9718 10.873C34.9126 10.4814 34.7615 10.1094 34.5308 9.78738ZM10.8342 2.49997L15.4998 5.99993C15.7162 6.1622 15.9793 6.24992 16.2498 6.24992H27.4997V8.74989H7.15147C6.62675 8.74985 6.11532 8.91492 5.68963 9.22171C5.26394 9.5285 4.94557 9.96146 4.77963 10.4592L2.49997 17.2967V2.49997H10.8342Z" fill="black"/>
</svg>
