<svg width="18" height="17" viewBox="0 0 18 17" fill="none" xmlns="http://www.w3.org/2000/svg">
<path d="M17.5885 6.87544C17.5711 6.78743 17.5349 6.7042 17.4825 6.6314C17.43 6.55861 17.3625 6.49795 17.2846 6.45357L14.9541 5.12544L14.9447 2.49888C14.9444 2.40842 14.9245 2.3191 14.8864 2.23709C14.8482 2.15508 14.7927 2.08234 14.7236 2.02388C13.8783 1.3088 12.9048 0.760805 11.8549 0.409035C11.7722 0.38105 11.6846 0.370694 11.5977 0.378633C11.5107 0.386571 11.4264 0.41263 11.3502 0.455128L8.99942 1.76919L6.64629 0.452785C6.57 0.410046 6.4856 0.383792 6.39853 0.375717C6.31146 0.367643 6.22367 0.377929 6.14082 0.405909C5.09158 0.759939 4.11914 1.31005 3.2752 2.027C3.20627 2.08538 3.15081 2.158 3.11264 2.23986C3.07447 2.32173 3.0545 2.4109 3.0541 2.50122L3.04239 5.13013L0.711916 6.45825C0.633949 6.50264 0.566451 6.56329 0.514011 6.63609C0.461571 6.70888 0.425419 6.79212 0.40801 6.88013C0.194726 7.95191 0.194726 9.05522 0.40801 10.127C0.425419 10.215 0.461571 10.2982 0.514011 10.371C0.566451 10.4438 0.633949 10.5045 0.711916 10.5489L3.04239 11.877L3.05176 14.5043C3.05204 14.5948 3.07196 14.6841 3.11013 14.7661C3.1483 14.8481 3.20382 14.9209 3.27285 14.9793C4.11822 15.6944 5.09173 16.2424 6.1416 16.5942C6.22428 16.6222 6.3119 16.6325 6.39883 16.6246C6.48575 16.6167 6.57005 16.5906 6.64629 16.5481L8.99942 15.2301L11.3525 16.5465C11.4457 16.5984 11.5506 16.6253 11.6572 16.6247C11.7255 16.6246 11.7933 16.6136 11.858 16.5918C12.907 16.238 13.8794 15.6884 14.7236 14.9723C14.7926 14.9139 14.848 14.8413 14.8862 14.7595C14.9244 14.6776 14.9443 14.5884 14.9447 14.4981L14.9564 11.8692L17.2869 10.5411C17.3649 10.4967 17.4324 10.436 17.4848 10.3632C17.5373 10.2904 17.5734 10.2072 17.5908 10.1192C17.8029 9.04826 17.8021 7.94606 17.5885 6.87544ZM8.99942 11.6247C8.38135 11.6247 7.77716 11.4414 7.26326 11.098C6.74936 10.7546 6.34882 10.2666 6.11229 9.69555C5.87577 9.12453 5.81388 8.49619 5.93446 7.89C6.05504 7.28381 6.35267 6.72699 6.78971 6.28995C7.22675 5.85291 7.78357 5.55528 8.38976 5.43471C8.99595 5.31413 9.62428 5.37601 10.1953 5.61254C10.7663 5.84906 11.2544 6.2496 11.5978 6.7635C11.9411 7.27741 12.1244 7.88159 12.1244 8.49966C12.1244 9.32846 11.7952 10.1233 11.2091 10.7094C10.6231 11.2954 9.82822 11.6247 8.99942 11.6247Z" fill="black"/>
</svg>
