<svg width="36" height="36" viewBox="0 0 36 36" fill="none" xmlns="http://www.w3.org/2000/svg">
<path d="M35.1875 3.9375V15.6562C35.1875 15.8635 35.1052 16.0622 34.9587 16.2087C34.8122 16.3552 34.6135 16.4375 34.4062 16.4375H19.5625V1.59375C19.5625 1.38655 19.6448 1.18784 19.7913 1.04132C19.9378 0.89481 20.1365 0.8125 20.3438 0.8125H32.0625C32.8913 0.8125 33.6862 1.14174 34.2722 1.72779C34.8583 2.31384 35.1875 3.1087 35.1875 3.9375ZM15.6562 0.8125H3.9375C3.1087 0.8125 2.31384 1.14174 1.72779 1.72779C1.14174 2.31384 0.8125 3.1087 0.8125 3.9375V15.6562C0.8125 15.8635 0.89481 16.0622 1.04132 16.2087C1.18784 16.3552 1.38655 16.4375 1.59375 16.4375H16.4375V1.59375C16.4375 1.38655 16.3552 1.18784 16.2087 1.04132C16.0622 0.89481 15.8635 0.8125 15.6562 0.8125ZM34.4062 19.5625H19.5625V34.4062C19.5625 34.6135 19.6448 34.8122 19.7913 34.9587C19.9378 35.1052 20.1365 35.1875 20.3438 35.1875H32.0625C32.8913 35.1875 33.6862 34.8583 34.2722 34.2722C34.8583 33.6862 35.1875 32.8913 35.1875 32.0625V20.3438C35.1875 20.1365 35.1052 19.9378 34.9587 19.7913C34.8122 19.6448 34.6135 19.5625 34.4062 19.5625ZM0.8125 20.3438V32.0625C0.8125 32.8913 1.14174 33.6862 1.72779 34.2722C2.31384 34.8583 3.1087 35.1875 3.9375 35.1875H15.6562C15.8635 35.1875 16.0622 35.1052 16.2087 34.9587C16.3552 34.8122 16.4375 34.6135 16.4375 34.4062V19.5625H1.59375C1.38655 19.5625 1.18784 19.6448 1.04132 19.7913C0.89481 19.9378 0.8125 20.1365 0.8125 20.3438Z" fill="black"/>
</svg>
