<svg width="17" height="18" viewBox="0 0 17 18" fill="none" xmlns="http://www.w3.org/2000/svg">
<path d="M8.37513 4.74592C8.37513 4.62231 8.41179 4.50147 8.48046 4.39869C8.54914 4.29591 8.64675 4.2158 8.76095 4.1685C8.87516 4.12119 9.00082 4.10882 9.12206 4.13293C9.2433 4.15705 9.35466 4.21657 9.44207 4.30398C9.52948 4.39139 9.58901 4.50275 9.61312 4.62399C9.63724 4.74523 9.62486 4.8709 9.57756 4.9851C9.53025 5.0993 9.45014 5.19692 9.34736 5.26559C9.24458 5.33427 9.12374 5.37092 9.00013 5.37092C8.83437 5.37092 8.6754 5.30508 8.55819 5.18787C8.44098 5.07065 8.37513 4.91168 8.37513 4.74592ZM10.2501 9.74592C10.2501 9.86954 10.2868 9.99037 10.3555 10.0932C10.4241 10.1959 10.5217 10.276 10.636 10.3233C10.7502 10.3707 10.8758 10.383 10.9971 10.3589C11.1183 10.3348 11.2297 10.2753 11.3171 10.1879C11.4045 10.1005 11.464 9.98909 11.4881 9.86786C11.5122 9.74662 11.4999 9.62095 11.4526 9.50675C11.4053 9.39254 11.3251 9.29493 11.2224 9.22625C11.1196 9.15758 10.9987 9.12092 10.8751 9.12092C10.7094 9.12092 10.5504 9.18677 10.4332 9.30398C10.316 9.42119 10.2501 9.58016 10.2501 9.74592ZM14.0392 12.517C14.8301 11.8529 15.4617 11.0196 15.8877 10.0788C16.3136 9.138 16.5229 8.11357 16.5001 7.08108C16.5001 7.02379 16.4978 6.96676 16.4931 6.90999C16.4881 6.83054 16.453 6.75598 16.3949 6.70154C16.3369 6.64709 16.2602 6.61686 16.1806 6.61702H14.2931L12.4861 8.78499C12.7118 9.16538 12.7957 9.61333 12.7231 10.0496C12.6505 10.486 12.4259 10.8826 12.0892 11.1693C11.7524 11.4561 11.3251 11.6146 10.8828 11.6167C10.4405 11.6189 10.0116 11.4647 9.67206 11.1812C9.33249 10.8978 9.10405 10.5034 9.02713 10.0678C8.95021 9.63226 9.02975 9.18351 9.25171 8.80091C9.47366 8.41831 9.82372 8.12649 10.24 7.97704C10.6563 7.82759 11.1121 7.83013 11.5267 7.9842L13.5197 5.59202C13.5787 5.52228 13.6523 5.46634 13.7354 5.42814C13.8184 5.38994 13.9088 5.37041 14.0001 5.37092H15.8079C15.8581 5.37098 15.9075 5.35897 15.952 5.33591C15.9966 5.31285 16.0349 5.27942 16.0638 5.23843C16.0926 5.19744 16.1112 5.15011 16.118 5.10042C16.1247 5.05073 16.1194 5.00015 16.1025 4.95295C15.1931 2.40217 12.8173 0.527173 9.99544 0.377173H9.94935C9.90734 0.375596 9.86544 0.382514 9.82616 0.397511C9.78688 0.412508 9.75103 0.435277 9.72076 0.464453C9.69049 0.49363 9.66642 0.528615 9.64999 0.567314C9.63356 0.606013 9.6251 0.64763 9.62513 0.689673V2.97483C10.0421 3.12226 10.3936 3.41237 10.6174 3.79388C10.8412 4.17539 10.9229 4.62373 10.8481 5.05966C10.7733 5.4956 10.5468 5.89106 10.2087 6.17615C9.8705 6.46123 9.44243 6.6176 9.00013 6.6176C8.55783 6.6176 8.12976 6.46123 7.79159 6.17615C7.45343 5.89106 7.22693 5.4956 7.15213 5.05966C7.07734 4.62373 7.15906 4.17539 7.38286 3.79388C7.60666 3.41237 7.95812 3.12226 8.37513 2.97483V0.865454C8.37525 0.81844 8.36476 0.772005 8.34445 0.729607C8.32413 0.687209 8.29451 0.649942 8.25779 0.620581C8.22107 0.591221 8.1782 0.570524 8.13237 0.560032C8.08654 0.549541 8.03894 0.549525 7.9931 0.559985C6.52311 0.921003 5.21298 1.75622 4.26528 2.9365C3.31758 4.11679 2.78509 5.5764 2.75013 7.08967L0.996224 10.46L0.979037 10.4951C0.851199 10.7886 0.840786 11.1198 0.949944 11.4207C1.0591 11.7216 1.27951 11.9691 1.56576 12.1123L1.58529 12.1217L3.37513 12.9412V15.3631C3.37513 15.6946 3.50683 16.0126 3.74125 16.247C3.97567 16.4814 4.29361 16.6131 4.62513 16.6131H7.75013V17.2381C7.75013 17.4039 7.81598 17.5628 7.93319 17.6801C8.0504 17.7973 8.20937 17.8631 8.37513 17.8631H13.9822C14.0928 17.8642 14.2019 17.8373 14.2994 17.785C14.4094 17.725 14.4988 17.6333 14.556 17.5219C14.6133 17.4104 14.6357 17.2843 14.6204 17.16L14.0392 12.517Z" fill="black"/>
</svg>
