<svg width="18" height="18" viewBox="0 0 18 18" fill="none" xmlns="http://www.w3.org/2000/svg">
<path d="M17.125 8.49974V14.7497C17.125 15.5785 16.7958 16.3734 16.2097 16.9595C15.6237 17.5455 14.8288 17.8747 14 17.8747H9.625C9.45924 17.8747 9.30027 17.8089 9.18306 17.6917C9.06585 17.5745 9 17.4155 9 17.2497C9 17.084 9.06585 16.925 9.18306 16.8078C9.30027 16.6906 9.45924 16.6247 9.625 16.6247H14C14.4973 16.6247 14.9742 16.4272 15.3258 16.0756C15.6775 15.7239 15.875 15.247 15.875 14.7497H14C13.5027 14.7497 13.0258 14.5522 12.6742 14.2006C12.3225 13.8489 12.125 13.372 12.125 12.8747V9.74974C12.125 9.25246 12.3225 8.77555 12.6742 8.42392C13.0258 8.07229 13.5027 7.87474 14 7.87474H15.8477C15.7294 6.57548 15.2439 5.33668 14.4478 4.30306C13.6518 3.26943 12.578 2.48365 11.352 2.0375C10.1261 1.59135 8.79844 1.50324 7.52425 1.78347C6.25007 2.0637 5.08192 2.70069 4.15625 3.62005C3.0052 4.75592 2.29525 6.26387 2.15313 7.87474H4C4.49728 7.87474 4.97419 8.07229 5.32583 8.42392C5.67746 8.77555 5.875 9.25246 5.875 9.74974V12.8747C5.875 13.372 5.67746 13.8489 5.32583 14.2006C4.97419 14.5522 4.49728 14.7497 4 14.7497H2.75C2.25272 14.7497 1.77581 14.5522 1.42417 14.2006C1.07254 13.8489 0.875 13.372 0.875 12.8747V8.49974C0.876752 6.89029 1.35596 5.31753 2.25196 3.98055C3.14796 2.64356 4.42047 1.60245 5.90843 0.988999C7.39639 0.375547 9.0329 0.217331 10.6108 0.534376C12.1887 0.851421 13.6371 1.62947 14.7727 2.77005C15.5224 3.52342 16.1161 4.41731 16.5197 5.40051C16.9234 6.38372 17.1291 7.43691 17.125 8.49974Z" fill="black"/>
</svg>
