<svg width="16" height="16" viewBox="0 0 16 16" fill="none" xmlns="http://www.w3.org/2000/svg">
<path d="M15.5 7.49551V14.9955C15.5 15.1613 15.4342 15.3202 15.3169 15.4375C15.1997 15.5547 15.0408 15.6205 14.875 15.6205H10.5C10.3342 15.6205 10.1753 15.5547 10.0581 15.4375C9.94085 15.3202 9.875 15.1613 9.875 14.9955V10.933C9.875 10.8501 9.84208 10.7706 9.78347 10.712C9.72487 10.6534 9.64538 10.6205 9.5625 10.6205H6.4375C6.35462 10.6205 6.27513 10.6534 6.21653 10.712C6.15792 10.7706 6.125 10.8501 6.125 10.933V14.9955C6.125 15.1613 6.05915 15.3202 5.94194 15.4375C5.82473 15.5547 5.66576 15.6205 5.5 15.6205H1.125C0.95924 15.6205 0.800269 15.5547 0.683058 15.4375C0.565848 15.3202 0.5 15.1613 0.5 14.9955V7.49551C0.500154 7.16405 0.63195 6.84622 0.866406 6.61192L7.11641 0.361921C7.3508 0.127677 7.66862 -0.00390625 8 -0.00390625C8.33138 -0.00390625 8.6492 0.127677 8.88359 0.361921L15.1336 6.61192C15.368 6.84622 15.4998 7.16405 15.5 7.49551Z" fill="black"/>
</svg>
