<svg width="35" height="35" viewBox="0 0 35 35" fill="none" xmlns="http://www.w3.org/2000/svg">
<path d="M17.5 0C14.0388 0 10.6554 1.02636 7.77753 2.94928C4.89967 4.87221 2.65665 7.60533 1.33212 10.803C0.00758248 14.0007 -0.338976 17.5194 0.336265 20.9141C1.01151 24.3087 2.67822 27.4269 5.12564 29.8744C7.57306 32.3218 10.6913 33.9885 14.0859 34.6637C17.4806 35.339 20.9993 34.9924 24.197 33.6679C27.3947 32.3433 30.1278 30.1003 32.0507 27.2225C33.9736 24.3446 35 20.9612 35 17.5C34.9951 12.8602 33.1498 8.41187 29.869 5.13104C26.5881 1.85022 22.1398 0.00489969 17.5 0ZM16.1538 9.42307C16.1538 9.06605 16.2957 8.72365 16.5481 8.4712C16.8006 8.21875 17.143 8.07692 17.5 8.07692C17.857 8.07692 18.1994 8.21875 18.4519 8.4712C18.7043 8.72365 18.8462 9.06605 18.8462 9.42307V18.8461C18.8462 19.2032 18.7043 19.5456 18.4519 19.798C18.1994 20.0505 17.857 20.1923 17.5 20.1923C17.143 20.1923 16.8006 20.0505 16.5481 19.798C16.2957 19.5456 16.1538 19.2032 16.1538 18.8461V9.42307ZM17.5 26.9231C17.1006 26.9231 16.7102 26.8046 16.3782 26.5828C16.0461 26.3609 15.7873 26.0455 15.6345 25.6766C15.4816 25.3076 15.4417 24.9016 15.5196 24.5099C15.5975 24.1182 15.7898 23.7584 16.0722 23.476C16.3546 23.1936 16.7144 23.0013 17.1061 22.9234C17.4978 22.8455 17.9038 22.8855 18.2727 23.0383C18.6417 23.1911 18.9571 23.45 19.1789 23.782C19.4008 24.1141 19.5192 24.5045 19.5192 24.9038C19.5192 25.4394 19.3065 25.953 18.9278 26.3317C18.5491 26.7103 18.0355 26.9231 17.5 26.9231Z" fill="black"/>
</svg>
