<svg width="23" height="26" viewBox="0 0 23 26" fill="none" xmlns="http://www.w3.org/2000/svg">
<path d="M20.5 0H2.5C1.96957 0 1.46086 0.210714 1.08579 0.585786C0.710714 0.960859 0.5 1.46957 0.5 2V24C0.5 24.5304 0.710714 25.0391 1.08579 25.4142C1.46086 25.7893 1.96957 26 2.5 26H20.5C21.0304 26 21.5391 25.7893 21.9142 25.4142C22.2893 25.0391 22.5 24.5304 22.5 24V2C22.5 1.46957 22.2893 0.960859 21.9142 0.585786C21.5391 0.210714 21.0304 0 20.5 0ZM11.5 17C11.7967 17 12.0867 17.088 12.3334 17.2528C12.58 17.4176 12.7723 17.6519 12.8858 17.926C12.9993 18.2001 13.0291 18.5017 12.9712 18.7926C12.9133 19.0836 12.7704 19.3509 12.5607 19.5607C12.3509 19.7704 12.0836 19.9133 11.7926 19.9712C11.5017 20.0291 11.2001 19.9993 10.926 19.8858C10.6519 19.7723 10.4176 19.58 10.2528 19.3334C10.088 19.0867 10 18.7967 10 18.5C10 18.1022 10.158 17.7206 10.4393 17.4393C10.7206 17.158 11.1022 17 11.5 17ZM10.5 14V7C10.5 6.73478 10.6054 6.48043 10.7929 6.29289C10.9804 6.10536 11.2348 6 11.5 6C11.7652 6 12.0196 6.10536 12.2071 6.29289C12.3946 6.48043 12.5 6.73478 12.5 7V14C12.5 14.2652 12.3946 14.5196 12.2071 14.7071C12.0196 14.8946 11.7652 15 11.5 15C11.2348 15 10.9804 14.8946 10.7929 14.7071C10.6054 14.5196 10.5 14.2652 10.5 14Z" fill="black"/>
</svg>
