<svg width="14" height="18" viewBox="0 0 14 18" fill="none" xmlns="http://www.w3.org/2000/svg">
<path d="M10.7501 17.2452C10.7501 17.4109 10.6843 17.5699 10.567 17.6871C10.4498 17.8043 10.2909 17.8702 10.1251 17.8702H3.8751C3.70934 17.8702 3.55037 17.8043 3.43316 17.6871C3.31595 17.5699 3.2501 17.4109 3.2501 17.2452C3.2501 17.0794 3.31595 16.9204 3.43316 16.8032C3.55037 16.686 3.70934 16.6202 3.8751 16.6202H10.1251C10.2909 16.6202 10.4498 16.686 10.567 16.8032C10.6843 16.9204 10.7501 17.0794 10.7501 17.2452ZM13.8751 7.24516C13.8778 8.28707 13.6424 9.31582 13.1869 10.2529C12.7315 11.19 12.0679 12.0106 11.247 12.6522C11.0935 12.7699 10.9689 12.9211 10.8828 13.0942C10.7967 13.2674 10.7513 13.458 10.7501 13.6514V14.1202C10.7501 14.4517 10.6184 14.7696 10.384 15.004C10.1496 15.2385 9.83162 15.3702 9.5001 15.3702H4.5001C4.16858 15.3702 3.85064 15.2385 3.61622 15.004C3.3818 14.7696 3.2501 14.4517 3.2501 14.1202V13.6514C3.24997 13.4603 3.20603 13.2718 3.12166 13.1003C3.03728 12.9289 2.91472 12.779 2.76338 12.6623C1.94448 12.0246 1.28139 11.2089 0.824304 10.277C0.36722 9.34507 0.12812 8.3214 0.125102 7.28344C0.10479 3.56 3.11416 0.459222 6.83448 0.37016C7.75116 0.348069 8.66299 0.509576 9.51632 0.845173C10.3696 1.18077 11.1472 1.68368 11.8033 2.32429C12.4593 2.96491 12.9806 3.73029 13.3364 4.57538C13.6922 5.42048 13.8754 6.32821 13.8751 7.24516ZM11.3665 6.51547C11.2044 5.61023 10.7689 4.77638 10.1186 4.12617C9.46823 3.47597 8.63428 3.04062 7.72901 2.87875C7.64806 2.86511 7.56522 2.86754 7.48521 2.88591C7.4052 2.90428 7.3296 2.93823 7.26271 2.98582C7.19582 3.03341 7.13896 3.09371 7.09538 3.16327C7.0518 3.23284 7.02234 3.31031 7.0087 3.39125C6.99505 3.4722 6.99748 3.55504 7.01585 3.63505C7.03422 3.71506 7.06817 3.79066 7.11576 3.85755C7.16335 3.92444 7.22365 3.9813 7.29322 4.02488C7.36278 4.06847 7.44025 4.09792 7.5212 4.11157C8.81573 4.32953 9.91417 5.42797 10.1337 6.72485C10.1584 6.87041 10.2339 7.00252 10.3467 7.09776C10.4595 7.193 10.6025 7.24522 10.7501 7.24516C10.7854 7.24495 10.8207 7.24208 10.8556 7.23657C11.0189 7.20868 11.1645 7.11704 11.2604 6.98182C11.3562 6.84659 11.3944 6.67885 11.3665 6.51547Z" fill="black"/>
</svg>
