<svg width="35" height="35" viewBox="0 0 35 35" fill="none" xmlns="http://www.w3.org/2000/svg">
<path d="M31.3991 29.8509L24.555 23.0067C26.5426 20.6229 27.5346 17.5646 27.3247 14.468C27.1148 11.3714 25.7192 8.47493 23.4281 6.38116C21.137 4.28739 18.1268 3.15753 15.0239 3.22663C11.9209 3.29572 8.9641 4.55846 6.76848 6.75215C4.57285 8.94584 3.3075 11.9016 3.23566 15.0044C3.16382 18.1073 4.29102 21.1185 6.38276 23.4114C8.47451 25.7044 11.3697 27.1026 14.4662 27.3152C17.5626 27.5279 20.6218 26.5385 23.0073 24.553L29.8515 31.3985C29.9531 31.5002 30.0737 31.5808 30.2065 31.6358C30.3393 31.6908 30.4816 31.7191 30.6253 31.7191C30.769 31.7191 30.9113 31.6908 31.0441 31.6358C31.1769 31.5808 31.2975 31.5002 31.3991 31.3985C31.5008 31.2969 31.5814 31.1763 31.6364 31.0435C31.6914 30.9107 31.7197 30.7684 31.7197 30.6247C31.7197 30.481 31.6914 30.3387 31.6364 30.2059C31.5814 30.0731 31.5008 29.9525 31.3991 29.8509ZM19.6878 16.406H16.4066V19.6872C16.4066 19.9773 16.2913 20.2555 16.0862 20.4606C15.8811 20.6657 15.6029 20.781 15.3128 20.781C15.0227 20.781 14.7445 20.6657 14.5394 20.4606C14.3343 20.2555 14.2191 19.9773 14.2191 19.6872V16.406H10.9378C10.6477 16.406 10.3695 16.2907 10.1644 16.0856C9.95929 15.8805 9.84405 15.6023 9.84405 15.3122C9.84405 15.0221 9.95929 14.7439 10.1644 14.5388C10.3695 14.3337 10.6477 14.2185 10.9378 14.2185H14.2191V10.9372C14.2191 10.6471 14.3343 10.3689 14.5394 10.1638C14.7445 9.95869 15.0227 9.84345 15.3128 9.84345C15.6029 9.84345 15.8811 9.95869 16.0862 10.1638C16.2913 10.3689 16.4066 10.6471 16.4066 10.9372V14.2185H19.6878C19.9779 14.2185 20.2561 14.3337 20.4612 14.5388C20.6663 14.7439 20.7816 15.0221 20.7816 15.3122C20.7816 15.6023 20.6663 15.8805 20.4612 16.0856C20.2561 16.2907 19.9779 16.406 19.6878 16.406Z" fill="black"/>
</svg>
