<svg width="42" height="42" viewBox="0 0 42 42" fill="none" xmlns="http://www.w3.org/2000/svg">
<path d="M28.8126 17.875C28.8126 20.0382 28.1711 22.1529 26.9693 23.9516C25.7674 25.7502 24.0592 27.1521 22.0607 27.9799C20.0621 28.8078 17.8629 29.0244 15.7413 28.6024C13.6196 28.1803 11.6707 27.1386 10.1411 25.609C8.61144 24.0794 7.56975 22.1305 7.14772 20.0088C6.7257 17.8871 6.94229 15.688 7.77013 13.6894C8.59796 11.6908 9.99985 9.98264 11.7985 8.78081C13.5972 7.57899 15.7118 6.93751 17.8751 6.93751C20.7759 6.93751 23.5579 8.08986 25.609 10.141C27.6602 12.1922 28.8126 14.9742 28.8126 17.875ZM40.8555 40.8555C40.7104 41.0008 40.5381 41.116 40.3484 41.1946C40.1587 41.2733 39.9554 41.3137 39.7501 41.3137C39.5447 41.3137 39.3414 41.2733 39.1517 41.1946C38.962 41.116 38.7897 41.0008 38.6446 40.8555L28.8672 31.0762C25.4671 33.9049 21.1073 35.3139 16.6947 35.0102C12.2822 34.7065 8.15654 32.7134 5.17602 29.4454C2.19549 26.1775 0.589513 21.8863 0.692132 17.4645C0.79475 13.0427 2.59807 8.83067 5.72698 5.70452C8.85589 2.57837 13.0695 0.778777 17.4914 0.680067C21.9133 0.581356 26.2031 2.19113 29.4684 5.17454C32.7337 8.15795 34.7231 12.2853 35.023 16.6981C35.3228 21.111 33.9099 25.4695 31.0782 28.8672L40.8555 38.6445C41.0008 38.7897 41.1161 38.962 41.1947 39.1517C41.2733 39.3414 41.3138 39.5447 41.3138 39.75C41.3138 39.9554 41.2733 40.1587 41.1947 40.3484C41.1161 40.538 41.0008 40.7104 40.8555 40.8555ZM17.8751 31.9375C20.6564 31.9375 23.3752 31.1128 25.6878 29.5676C28.0003 28.0223 29.8028 25.8261 30.8671 23.2565C31.9315 20.6869 32.21 17.8594 31.6674 15.1316C31.1248 12.4037 29.7854 9.898 27.8187 7.93133C25.8521 5.96465 23.3464 4.62533 20.6185 4.08272C17.8907 3.54012 15.0632 3.8186 12.4936 4.88296C9.92399 5.94732 7.72773 7.74974 6.18252 10.0623C4.63731 12.3749 3.81256 15.0937 3.81256 17.875C3.8167 21.6034 5.2996 25.1778 7.93594 27.8141C10.5723 30.4505 14.1467 31.9334 17.8751 31.9375Z" fill="black"/>
</svg>
