<svg width="21" height="20" viewBox="0 0 21 20" fill="none" xmlns="http://www.w3.org/2000/svg">
<path d="M10.6665 0.25C8.73814 0.25 6.85308 0.821828 5.2497 1.89317C3.64632 2.96452 2.39664 4.48726 1.65868 6.26884C0.920728 8.05042 0.727646 10.0108 1.10385 11.9021C1.48006 13.7934 2.40866 15.5307 3.77222 16.8943C5.13578 18.2579 6.87306 19.1865 8.76438 19.5627C10.6557 19.9389 12.6161 19.7458 14.3977 19.0078C16.1793 18.2699 17.702 17.0202 18.7733 15.4168C19.8447 13.8134 20.4165 11.9284 20.4165 10C20.4138 7.41498 19.3857 4.93661 17.5578 3.10872C15.7299 1.28084 13.2515 0.25273 10.6665 0.25ZM12.1665 15.25H11.4165V16C11.4165 16.1989 11.3375 16.3897 11.1968 16.5303C11.0562 16.671 10.8654 16.75 10.6665 16.75C10.4676 16.75 10.2768 16.671 10.1362 16.5303C9.99553 16.3897 9.91651 16.1989 9.91651 16V15.25H9.16651C8.37086 15.25 7.6078 14.9339 7.04519 14.3713C6.48258 13.8087 6.16651 13.0456 6.16651 12.25C6.16651 12.0511 6.24553 11.8603 6.38618 11.7197C6.52683 11.579 6.7176 11.5 6.91651 11.5C7.11542 11.5 7.30619 11.579 7.44684 11.7197C7.58749 11.8603 7.66651 12.0511 7.66651 12.25C7.66651 12.6478 7.82454 13.0294 8.10585 13.3107C8.38715 13.592 8.76868 13.75 9.16651 13.75H12.1665C12.5643 13.75 12.9459 13.592 13.2272 13.3107C13.5085 13.0294 13.6665 12.6478 13.6665 12.25C13.6665 11.8522 13.5085 11.4706 13.2272 11.1893C12.9459 10.908 12.5643 10.75 12.1665 10.75H9.54151C8.74586 10.75 7.9828 10.4339 7.42019 9.87132C6.85758 9.30871 6.54151 8.54565 6.54151 7.75C6.54151 6.95435 6.85758 6.19129 7.42019 5.62868C7.9828 5.06607 8.74586 4.75 9.54151 4.75H9.91651V4C9.91651 3.80109 9.99553 3.61032 10.1362 3.46967C10.2768 3.32902 10.4676 3.25 10.6665 3.25C10.8654 3.25 11.0562 3.32902 11.1968 3.46967C11.3375 3.61032 11.4165 3.80109 11.4165 4V4.75H11.7915C12.5872 4.75 13.3502 5.06607 13.9128 5.62868C14.4754 6.19129 14.7915 6.95435 14.7915 7.75C14.7915 7.94891 14.7125 8.13968 14.5718 8.28033C14.4312 8.42098 14.2404 8.5 14.0415 8.5C13.8426 8.5 13.6518 8.42098 13.5112 8.28033C13.3705 8.13968 13.2915 7.94891 13.2915 7.75C13.2915 7.35218 13.1335 6.97064 12.8522 6.68934C12.5709 6.40804 12.1893 6.25 11.7915 6.25H9.54151C9.14368 6.25 8.76215 6.40804 8.48085 6.68934C8.19954 6.97064 8.04151 7.35218 8.04151 7.75C8.04151 8.14782 8.19954 8.52936 8.48085 8.81066C8.76215 9.09196 9.14368 9.25 9.54151 9.25H12.1665C12.9622 9.25 13.7252 9.56607 14.2878 10.1287C14.8504 10.6913 15.1665 11.4544 15.1665 12.25C15.1665 13.0456 14.8504 13.8087 14.2878 14.3713C13.7252 14.9339 12.9622 15.25 12.1665 15.25Z" fill="black"/>
</svg>
