<svg width="36" height="36" viewBox="0 0 36 36" fill="none" xmlns="http://www.w3.org/2000/svg">
<path d="M17.815 0C14.2915 0 10.8472 1.04483 7.91752 3.00237C4.98786 4.95991 2.70447 7.74223 1.35609 10.9975C0.00771896 14.2528 -0.345077 17.8348 0.342318 21.2905C1.02971 24.7463 2.72643 27.9206 5.2179 30.4121C7.70937 32.9036 10.8837 34.6003 14.3395 35.2877C17.7952 35.9751 21.3772 35.6223 24.6325 34.2739C27.8878 32.9255 30.6701 30.6421 32.6276 27.7125C34.5852 24.7828 35.63 21.3385 35.63 17.815C35.6241 13.092 33.7453 8.56408 30.4056 5.2244C27.0659 1.88472 22.538 0.00589274 17.815 0ZM24.6669 19.1854H19.1854V24.6669C19.1854 25.0304 19.041 25.3789 18.784 25.6359C18.527 25.8929 18.1785 26.0373 17.815 26.0373C17.4516 26.0373 17.103 25.8929 16.846 25.6359C16.589 25.3789 16.4446 25.0304 16.4446 24.6669V19.1854H10.9631C10.5996 19.1854 10.2511 19.041 9.99407 18.784C9.73708 18.527 9.5927 18.1784 9.5927 17.815C9.5927 17.4515 9.73708 17.103 9.99407 16.846C10.2511 16.589 10.5996 16.4446 10.9631 16.4446H16.4446V10.9631C16.4446 10.5996 16.589 10.2511 16.846 9.99407C17.103 9.73707 17.4516 9.59269 17.815 9.59269C18.1785 9.59269 18.527 9.73707 18.784 9.99407C19.041 10.2511 19.1854 10.5996 19.1854 10.9631V16.4446H24.6669C25.0304 16.4446 25.3789 16.589 25.6359 16.846C25.8929 17.103 26.0373 17.4515 26.0373 17.815C26.0373 18.1784 25.8929 18.527 25.6359 18.784C25.3789 19.041 25.0304 19.1854 24.6669 19.1854Z" fill="black"/>
</svg>
