<svg width="35" height="35" viewBox="0 0 35 35" fill="none" xmlns="http://www.w3.org/2000/svg">
<path fill-rule="evenodd" clip-rule="evenodd" d="M18.9015 7.49208V16.9783H16.8877V7.49208H18.9015ZM27.9586 4.64563H7.83264V6.65743H27.9586V4.64563ZM27.3346 19.7756C29.6377 19.7756 31.5039 17.9094 31.5039 15.6082H23.1653C23.1653 17.9094 25.0334 19.7756 27.3346 19.7756ZM8.45472 8.13382L11.746 14.7736H12.6751L9.06493 7.49208H7.84646L4.23618 14.7736H5.16333L8.45472 8.13382ZM4.28542 15.6083C4.28542 17.9094 6.15153 19.7756 8.45472 19.7756C10.7579 19.7756 12.624 17.9094 12.624 15.6083H4.28542ZM27.9449 7.49208H26.7264L23.1161 14.7736H24.0433L27.3346 8.13382L30.6279 14.7736H31.5551L27.9449 7.49208ZM17.8956 3.81299C18.9468 3.81299 19.8011 2.95868 19.8011 1.90549C19.8011 0.852292 18.9468 0 17.8956 0C16.8444 0 15.9881 0.854306 15.9881 1.90549C15.9881 2.95667 16.8424 3.81299 17.8956 3.81299ZM24.8346 21.1063C24.8346 22.8819 24.1574 24.6575 22.8031 26.0138C20.0924 28.7225 15.6987 28.7225 12.9881 26.0138C11.6318 24.6575 10.9547 22.8819 10.9547 21.1063H4V22.9331C4 23.4764 4.44292 23.9174 4.98424 23.9174H6.36222C6.64569 25.0847 7.10826 26.2185 7.75 27.2717L6.77757 28.246C6.39375 28.6299 6.39375 29.2539 6.77757 29.6378L9.36222 32.2244C9.74611 32.6063 10.3721 32.6063 10.754 32.2244L11.7283 31.25C12.7815 31.8917 13.9153 32.3543 15.0826 32.6378V34.0158C15.0826 34.559 15.5236 35 16.0669 35H19.7224C20.2656 35 20.7085 34.559 20.7085 34.0158V32.6378C21.8739 32.3543 23.0078 31.8917 24.0609 31.25L25.0353 32.2244C25.4192 32.6063 26.0431 32.6063 26.427 32.2244L27.7204 30.931L29.0137 29.6377C29.3956 29.2538 29.3956 28.6299 29.0137 28.246L28.0393 27.2716C28.681 26.2184 29.1436 25.0846 29.4271 23.9173H30.8051C31.3483 23.9173 31.7893 23.4763 31.7893 22.9331V21.1063H24.8346V21.1063ZM23.2794 19.1654C22.5353 19.1654 21.9251 18.5551 21.9251 17.8111H13.8641C13.8641 18.5552 13.2558 19.1654 12.5117 19.1654V21.1063H23.2794V19.1654Z" fill="black"/>
</svg>
