<svg width="38" height="32" viewBox="0 0 38 32" fill="none" xmlns="http://www.w3.org/2000/svg">
<path d="M37.75 20.6875V28.5C37.75 29.3288 37.4208 30.1237 36.8347 30.7097C36.2487 31.2958 35.4538 31.625 34.625 31.625H3.375C2.5462 31.625 1.75134 31.2958 1.16529 30.7097C0.57924 30.1237 0.25 29.3288 0.25 28.5V20.6875C0.25 19.8587 0.57924 19.0638 1.16529 18.4778C1.75134 17.8917 2.5462 17.5625 3.375 17.5625H34.625C35.4538 17.5625 36.2487 17.8917 36.8347 18.4778C37.4208 19.0638 37.75 19.8587 37.75 20.6875ZM34.625 0.375H3.375C2.5462 0.375 1.75134 0.70424 1.16529 1.29029C0.57924 1.87634 0.25 2.6712 0.25 3.5V11.3125C0.25 12.1413 0.57924 12.9362 1.16529 13.5222C1.75134 14.1083 2.5462 14.4375 3.375 14.4375H34.625C35.4538 14.4375 36.2487 14.1083 36.8347 13.5222C37.4208 12.9362 37.75 12.1413 37.75 11.3125V3.5C37.75 2.6712 37.4208 1.87634 36.8347 1.29029C36.2487 0.70424 35.4538 0.375 34.625 0.375Z" fill="black"/>
</svg>
