<svg width="35" height="35" viewBox="0 0 35 35" fill="none" xmlns="http://www.w3.org/2000/svg">
<path d="M30.625 7.65625V15.3125C30.625 22.5203 27.1359 26.8885 24.2088 29.2838C21.0561 31.8623 17.9197 32.7387 17.783 32.7742C17.595 32.8254 17.3968 32.8254 17.2088 32.7742C17.0721 32.7387 13.9398 31.8623 10.783 29.2838C7.86406 26.8885 4.375 22.5203 4.375 15.3125V7.65625C4.375 7.07609 4.60547 6.51969 5.0157 6.10945C5.42594 5.69922 5.98234 5.46875 6.5625 5.46875H28.4375C29.0177 5.46875 29.5741 5.69922 29.9843 6.10945C30.3945 6.51969 30.625 7.07609 30.625 7.65625Z" fill="black"/>
</svg>
