<svg width="19" height="19" viewBox="0 0 19 19" fill="none" xmlns="http://www.w3.org/2000/svg">
<path d="M9.09297 0.465088C7.29913 0.465088 5.54559 0.997021 4.05407 1.99362C2.56256 2.99022 1.40006 4.40672 0.713592 6.06401C0.0271232 7.72129 -0.152489 9.54492 0.197471 11.3043C0.54743 13.0636 1.41124 14.6797 2.67967 15.9482C3.9481 17.2166 5.56418 18.0804 7.32354 18.4303C9.0829 18.7803 10.9065 18.6007 12.5638 17.9142C14.2211 17.2278 15.6376 16.0653 16.6342 14.5737C17.6308 13.0822 18.1627 11.3287 18.1627 9.53486C18.1602 7.13018 17.2038 4.82473 15.5035 3.12437C13.8031 1.424 11.4976 0.467627 9.09297 0.465088ZM2.11622 10.2325C1.93119 10.2325 1.75373 10.159 1.62289 10.0282C1.49205 9.89735 1.41855 9.71989 1.41855 9.53486C1.41855 9.34982 1.49205 9.17237 1.62289 9.04153C1.75373 8.91069 1.93119 8.83718 2.11622 8.83718H4.20924C4.39428 8.83718 4.57173 8.91069 4.70257 9.04153C4.83341 9.17237 4.90692 9.34982 4.90692 9.53486C4.90692 9.71989 4.83341 9.89735 4.70257 10.0282C4.57173 10.159 4.39428 10.2325 4.20924 10.2325H2.11622ZM6.13308 13.4811L4.65052 14.9636C4.5857 15.0285 4.50875 15.0799 4.42406 15.115C4.33936 15.15 4.24859 15.1681 4.15692 15.1681C4.06525 15.1681 3.97447 15.15 3.88978 15.115C3.80509 15.0799 3.72813 15.0285 3.66331 14.9636C3.59849 14.8988 3.54707 14.8219 3.51199 14.7372C3.47691 14.6525 3.45886 14.5617 3.45886 14.47C3.45886 14.3784 3.47691 14.2876 3.51199 14.2029C3.54707 14.1182 3.59849 14.0412 3.66331 13.9764L5.14587 12.4939C5.27778 12.3686 5.45342 12.2997 5.63534 12.302C5.81727 12.3044 5.99109 12.3777 6.11974 12.5063C6.24839 12.635 6.3217 12.8088 6.32403 12.9907C6.32636 13.1727 6.25753 13.3483 6.13221 13.4802L6.13308 13.4811ZM6.13308 6.57497C6.00225 6.70571 5.82487 6.77915 5.63991 6.77915C5.45496 6.77915 5.27757 6.70571 5.14674 6.57497L3.66419 5.09241C3.59954 5.02748 3.54831 4.95045 3.51343 4.86571C3.47855 4.78098 3.46071 4.69021 3.46091 4.59858C3.46132 4.41352 3.53522 4.23621 3.66637 4.10564C3.79751 3.97508 3.97515 3.90195 4.1602 3.90236C4.34526 3.90277 4.52257 3.97668 4.65314 4.10782L6.1357 5.59038C6.26556 5.72148 6.33819 5.89869 6.3377 6.08322C6.33721 6.26774 6.26364 6.44456 6.13308 6.57497ZM9.79064 16.5116C9.79064 16.6966 9.71714 16.8741 9.5863 17.0049C9.45546 17.1358 9.278 17.2093 9.09297 17.2093C8.90793 17.2093 8.73047 17.1358 8.59964 17.0049C8.4688 16.8741 8.39529 16.6966 8.39529 16.5116V14.4186C8.39529 14.2335 8.4688 14.0561 8.59964 13.9252C8.73047 13.7944 8.90793 13.7209 9.09297 13.7209C9.278 13.7209 9.45546 13.7944 9.5863 13.9252C9.71714 14.0561 9.79064 14.2335 9.79064 14.4186V16.5116ZM9.79064 4.65113C9.79064 4.83617 9.71714 5.01363 9.5863 5.14446C9.45546 5.2753 9.278 5.34881 9.09297 5.34881C8.90793 5.34881 8.73047 5.2753 8.59964 5.14446C8.4688 5.01363 8.39529 4.83617 8.39529 4.65113V2.55811C8.39529 2.37308 8.4688 2.19562 8.59964 2.06478C8.73047 1.93394 8.90793 1.86044 9.09297 1.86044C9.278 1.86044 9.45546 1.93394 9.5863 2.06478C9.71714 2.19562 9.79064 2.37308 9.79064 2.55811V4.65113ZM14.52 14.9619C14.4552 15.0268 14.3783 15.0782 14.2936 15.1133C14.2089 15.1484 14.1181 15.1665 14.0264 15.1665C13.9347 15.1665 13.8439 15.1484 13.7592 15.1133C13.6745 15.0782 13.5976 15.0268 13.5328 14.9619L12.0502 13.4793C11.9249 13.3474 11.8561 13.1718 11.8584 12.9899C11.8607 12.8079 11.9341 12.6341 12.0627 12.5055C12.1914 12.3768 12.3652 12.3035 12.5471 12.3012C12.729 12.2988 12.9047 12.3677 13.0366 12.493L14.5191 13.9756C14.65 14.1063 14.7236 14.2836 14.7237 14.4685C14.7239 14.6535 14.6506 14.8309 14.52 14.9619ZM16.0697 10.2325H13.9767C13.7917 10.2325 13.6142 10.159 13.4834 10.0282C13.3525 9.89735 13.279 9.71989 13.279 9.53486C13.279 9.34982 13.3525 9.17237 13.4834 9.04153C13.6142 8.91069 13.7917 8.83718 13.9767 8.83718H16.0697C16.2547 8.83718 16.4322 8.91069 16.563 9.04153C16.6939 9.17237 16.7674 9.34982 16.7674 9.53486C16.7674 9.71989 16.6939 9.89735 16.563 10.0282C16.4322 10.159 16.2547 10.2325 16.0697 10.2325Z" fill="black"/>
</svg>
