<svg width="16" height="17" viewBox="0 0 16 17" fill="none" xmlns="http://www.w3.org/2000/svg">
<path d="M15.5 7.12061V8.99561C15.5 9.32713 15.3683 9.64507 15.1339 9.87949C14.8995 10.1139 14.5815 10.2456 14.25 10.2456H1.75C1.41848 10.2456 1.10054 10.1139 0.866116 9.87949C0.631696 9.64507 0.5 9.32713 0.5 8.99561V7.12061C0.5 6.78908 0.631696 6.47114 0.866116 6.23672C1.10054 6.0023 1.41848 5.87061 1.75 5.87061H14.25C14.5815 5.87061 14.8995 6.0023 15.1339 6.23672C15.3683 6.47114 15.5 6.78908 15.5 7.12061ZM14.25 0.245605H1.75C1.41848 0.245605 1.10054 0.377301 0.866116 0.611722C0.631696 0.846142 0.5 1.16408 0.5 1.49561V3.37061C0.5 3.70213 0.631696 4.02007 0.866116 4.25449C1.10054 4.48891 1.41848 4.62061 1.75 4.62061H14.25C14.5815 4.62061 14.8995 4.48891 15.1339 4.25449C15.3683 4.02007 15.5 3.70213 15.5 3.37061V1.49561C15.5 1.16408 15.3683 0.846142 15.1339 0.611722C14.8995 0.377301 14.5815 0.245605 14.25 0.245605ZM9.875 13.3706H8.625V12.1206C8.625 11.9548 8.55915 11.7959 8.44194 11.6787C8.32473 11.5615 8.16576 11.4956 8 11.4956C7.83424 11.4956 7.67527 11.5615 7.55806 11.6787C7.44085 11.7959 7.375 11.9548 7.375 12.1206V13.3706H6.125C5.95924 13.3706 5.80027 13.4365 5.68306 13.5537C5.56585 13.6709 5.5 13.8298 5.5 13.9956C5.5 14.1614 5.56585 14.3203 5.68306 14.4375C5.80027 14.5548 5.95924 14.6206 6.125 14.6206H7.375V15.8706C7.375 16.0364 7.44085 16.1953 7.55806 16.3125C7.67527 16.4298 7.83424 16.4956 8 16.4956C8.16576 16.4956 8.32473 16.4298 8.44194 16.3125C8.55915 16.1953 8.625 16.0364 8.625 15.8706V14.6206H9.875C10.0408 14.6206 10.1997 14.5548 10.3169 14.4375C10.4342 14.3203 10.5 14.1614 10.5 13.9956C10.5 13.8298 10.4342 13.6709 10.3169 13.5537C10.1997 13.4365 10.0408 13.3706 9.875 13.3706Z" fill="black"/>
</svg>
