<svg width="36" height="36" viewBox="0 0 36 36" fill="none" xmlns="http://www.w3.org/2000/svg">
<g clip-path="url(#clip0_185_2857)">
<path d="M5.37437 5.62563C2.92695 8.07305 1.26024 11.1912 0.584998 14.5859C-0.0902431 17.9806 0.256315 21.4992 1.58085 24.697C2.90538 27.8947 5.1484 30.6278 8.02626 32.5507C10.9041 34.4736 14.2876 35.5 17.7487 35.5C21.2099 35.5 24.5934 34.4736 27.4712 32.5507C30.3491 30.6278 32.5921 27.8947 33.9166 24.697C35.2412 21.4992 35.5877 17.9806 34.9125 14.5859C34.2372 11.1912 32.5705 8.07305 30.1231 5.62563C26.8384 2.34909 22.3883 0.50904 17.7487 0.509041C13.1092 0.509041 8.65909 2.34909 5.37437 5.62563ZM23.46 14.1925L19.6525 18L23.46 21.8075C23.7124 22.0599 23.8543 22.4023 23.8543 22.7594C23.8543 23.1164 23.7124 23.4588 23.46 23.7112C23.2075 23.9637 22.8651 24.1055 22.5081 24.1055C22.1511 24.1055 21.8087 23.9637 21.5562 23.7112L17.7487 19.9037L13.9412 23.7112C13.6888 23.9637 13.3464 24.1055 12.9894 24.1055C12.6323 24.1055 12.2899 23.9637 12.0375 23.7112C11.785 23.4588 11.6432 23.1164 11.6432 22.7594C11.6432 22.4023 11.785 22.0599 12.0375 21.8075L15.845 18L12.0375 14.1925C11.785 13.94 11.6432 13.5976 11.6432 13.2406C11.6432 12.8836 11.785 12.5412 12.0375 12.2887C12.2899 12.0363 12.6323 11.8945 12.9894 11.8945C13.3464 11.8945 13.6888 12.0363 13.9412 12.2887L17.7487 16.0962L21.5562 12.2888C21.8087 12.0363 22.1511 11.8945 22.5081 11.8945C22.8651 11.8945 23.2075 12.0363 23.46 12.2888C23.7124 12.5412 23.8543 12.8836 23.8543 13.2406C23.8543 13.5976 23.7124 13.94 23.46 14.1925Z" fill="black"/>
</g>
<defs>
<clipPath id="clip0_185_2857">
<rect width="36" height="36" fill="white"/>
</clipPath>
</defs>
</svg>
