<svg width="33" height="35" viewBox="0 0 33 35" fill="none" xmlns="http://www.w3.org/2000/svg">
<path d="M30.9615 5.38462H24.2308V4.03846C24.2308 2.96739 23.8053 1.9402 23.0479 1.18284C22.2906 0.42548 21.2634 0 20.1923 0H12.1154C11.0443 0 10.0171 0.42548 9.25976 1.18284C8.5024 1.9402 8.07692 2.96739 8.07692 4.03846V5.38462H1.34615C0.989132 5.38462 0.646732 5.52644 0.39428 5.7789C0.141827 6.03135 0 6.37375 0 6.73077C0 7.08779 0.141827 7.43019 0.39428 7.68264C0.646732 7.9351 0.989132 8.07692 1.34615 8.07692H2.69231V32.3077C2.69231 33.0217 2.97596 33.7065 3.48087 34.2114C3.98577 34.7163 4.67057 35 5.38462 35H26.9231C27.6371 35 28.3219 34.7163 28.8268 34.2114C29.3317 33.7065 29.6154 33.0217 29.6154 32.3077V8.07692H30.9615C31.3186 8.07692 31.661 7.9351 31.9134 7.68264C32.1659 7.43019 32.3077 7.08779 32.3077 6.73077C32.3077 6.37375 32.1659 6.03135 31.9134 5.7789C31.661 5.52644 31.3186 5.38462 30.9615 5.38462ZM13.4615 25.5769C13.4615 25.9339 13.3197 26.2763 13.0673 26.5288C12.8148 26.7813 12.4724 26.9231 12.1154 26.9231C11.7584 26.9231 11.416 26.7813 11.1635 26.5288C10.9111 26.2763 10.7692 25.9339 10.7692 25.5769V14.8077C10.7692 14.4507 10.9111 14.1083 11.1635 13.8558C11.416 13.6034 11.7584 13.4615 12.1154 13.4615C12.4724 13.4615 12.8148 13.6034 13.0673 13.8558C13.3197 14.1083 13.4615 14.4507 13.4615 14.8077V25.5769ZM21.5385 25.5769C21.5385 25.9339 21.3966 26.2763 21.1442 26.5288C20.8917 26.7813 20.5493 26.9231 20.1923 26.9231C19.8353 26.9231 19.4929 26.7813 19.2404 26.5288C18.988 26.2763 18.8462 25.9339 18.8462 25.5769V14.8077C18.8462 14.4507 18.988 14.1083 19.2404 13.8558C19.4929 13.6034 19.8353 13.4615 20.1923 13.4615C20.5493 13.4615 20.8917 13.6034 21.1442 13.8558C21.3966 14.1083 21.5385 14.4507 21.5385 14.8077V25.5769ZM21.5385 5.38462H10.7692V4.03846C10.7692 3.68144 10.9111 3.33904 11.1635 3.08659C11.416 2.83413 11.7584 2.69231 12.1154 2.69231H20.1923C20.5493 2.69231 20.8917 2.83413 21.1442 3.08659C21.3966 3.33904 21.5385 3.68144 21.5385 4.03846V5.38462Z" fill="black"/>
</svg>
