<svg width="16" height="16" viewBox="0 0 16 16" fill="none" xmlns="http://www.w3.org/2000/svg">
<path d="M11.0938 7.4375C11.0938 8.04939 10.9123 8.64753 10.5724 9.15629C10.2324 9.66506 9.74924 10.0616 9.18393 10.2958C8.61862 10.5299 7.99657 10.5912 7.39644 10.4718C6.79631 10.3524 6.24506 10.0578 5.81239 9.62511C5.37972 9.19244 5.08507 8.64119 4.9657 8.04106C4.84633 7.44093 4.90759 6.81888 5.14175 6.25357C5.37591 5.68826 5.77244 5.20509 6.28121 4.86514C6.78997 4.5252 7.38812 4.34375 8 4.34375C8.82023 4.34468 9.6066 4.67093 10.1866 5.25092C10.7666 5.83091 11.0928 6.61727 11.0938 7.4375ZM15.3125 8C15.3125 9.44628 14.8836 10.8601 14.0801 12.0626C13.2766 13.2651 12.1346 14.2024 10.7984 14.7559C9.46219 15.3093 7.99189 15.4541 6.57341 15.172C5.15492 14.8898 3.85196 14.1934 2.82928 13.1707C1.80661 12.148 1.11017 10.8451 0.828011 9.4266C0.545856 8.00811 0.690668 6.53781 1.24413 5.20163C1.7976 3.86544 2.73486 2.72339 3.9374 1.91988C5.13993 1.11637 6.55373 0.6875 8 0.6875C9.93877 0.689547 11.7975 1.46063 13.1685 2.83154C14.5394 4.20246 15.3105 6.06123 15.3125 8ZM14.1875 8C14.1866 7.16717 14.0178 6.34308 13.6911 5.577C13.3644 4.81093 12.8865 4.1186 12.2861 3.54144C11.6857 2.96427 10.9751 2.51412 10.1967 2.21789C9.41835 1.92167 8.58823 1.78547 7.75602 1.81742C4.4443 1.94539 1.80336 4.70375 1.8125 8.01758C1.81568 9.52615 2.37207 10.9812 3.37625 12.107C3.78521 11.5138 4.30469 11.0051 4.90625 10.6086C4.95754 10.5747 5.01852 10.5586 5.07985 10.5626C5.14118 10.5667 5.19949 10.5907 5.24586 10.6311C6.01029 11.2923 6.9872 11.6562 7.99789 11.6562C9.00859 11.6562 9.9855 11.2923 10.7499 10.6311C10.7963 10.5907 10.8546 10.5667 10.9159 10.5626C10.9773 10.5586 11.0382 10.5747 11.0895 10.6086C11.6919 11.0049 12.2121 11.5136 12.6216 12.107C13.6308 10.9771 14.1883 9.51494 14.1875 8Z" fill="black"/>
</svg>
